<svg width="14" height="12" fill="none" xmlns="http://www.w3.org/2000/svg"><path d="M5.357 10.772c0-.586-.485-1.071-1.071-1.071s-1.072.485-1.072 1.071.486 1.071 1.072 1.071c.586 0 1.071-.485 1.071-1.071zm7.5 0c0-.586-.485-1.071-1.071-1.071s-1.072.485-1.072 1.071.486 1.071 1.072 1.071c.586 0 1.071-.485 1.071-1.071zm1.072-9.107a.54.54 0 00-.536-.536H3.34C3.256.727 3.24.058 2.679.058H.536A.54.54 0 000 .593a.54.54 0 00.536.536h1.707l1.482 6.89c-.134.259-.51.886-.51 1.146a.54.54 0 00.535.536h8.571a.54.54 0 00.536-.536.54.54 0 00-.536-.536h-7.7c.083-.167.2-.343.2-.536 0-.2-.067-.393-.108-.586l8.738-1.02a.549.549 0 00.478-.536V1.665z" fill="#FF4B55"/></svg>