<svg width="13" height="14" fill="none" xmlns="http://www.w3.org/2000/svg"><path d="M12.857 7.415c0-3.54-2.888-6.429-6.428-6.429A6.507 6.507 0 002 2.761L.912 1.68a.516.516 0 00-.577-.117.537.537 0 00-.335.494v3.75a.54.54 0 00.536.535h3.75c.217 0 .41-.134.494-.334a.516.516 0 00-.118-.578L3.516 4.276a4.262 4.262 0 012.913-1.147 4.294 4.294 0 014.285 4.286A4.294 4.294 0 016.43 11.7a4.238 4.238 0 01-3.382-1.665.273.273 0 00-.193-.1.321.321 0 00-.209.075l-1.147 1.155a.278.278 0 00-.016.36 6.414 6.414 0 004.947 2.318c3.54 0 6.428-2.887 6.428-6.428zM7.5 5.005a.264.264 0 00-.268-.269h-.536a.264.264 0 00-.267.268v2.947H4.554a.264.264 0 00-.268.267v.536c0 .15.117.268.268.268h2.678c.15 0 .268-.117.268-.268v-3.75z" fill="#FF4B55"/></svg>