<svg width="60" height="60" viewBox="0 0 60 60" fill="none" xmlns="http://www.w3.org/2000/svg"><path d="M54.282 3.619l-1.828.225a18.74 18.74 0 00-10.932 5.353l-5.364 5.364-8.524 8.524a45.751 45.751 0 00-1.757 1.863 44.1 44.1 0 00-2.456 2.981l-8.27 10.921-.713.938-3.047 4.003-1.612 2.137a1.895 1.895 0 00.159 2.466l1.669 1.669a1.895 1.895 0 002.465.159l2.016-1.519 3.89-2.953.938-.703 11.156-8.466A43 43 0 0035.1 34.07a34.745 34.745 0 001.761-1.651c.017-.018.037-.034.054-.052l8.782-8.782 5.107-5.106a18.74 18.74 0 005.353-10.931l.225-1.828a1.882 1.882 0 00-2.1-2.1z" fill="var(--color-1)"/><path d="M25.875 24.947c.57-.637 1.153-1.26 1.757-1.863l8.524-8.524-8.518 8.521c-.61.61-1.19 1.228-1.763 1.866zM36.914 32.366l-.053.052c.019-.02.04-.037.058-.056l8.778-8.777-8.783 8.781z" fill="#B1D5FF"/><path d="M46.725 23.882l4.744-4.741a19.793 19.793 0 005.625-11.48l.224-1.828a2.82 2.82 0 00-3.145-3.145l-1.83.226A19.781 19.781 0 0040.86 8.53l-5.002 5.003L16.19 9.25a15.989 15.989 0 00-7.66.219l-1.868.52a.937.937 0 00-.308 1.655L24.506 25.1a44.283 44.283 0 00-1.833 2.263l-7.988 10.54-10.521-.225h-.02a.938.938 0 00-.545 1.697l6.469 4.618-1.04 1.374a2.85 2.85 0 00.247 3.69l1.673 1.673a2.85 2.85 0 003.687.241l1.246-.944 4.075 5.708a.938.938 0 001.7-.526l.188-9.7 10.793-8.18c.81-.613 1.579-1.25 2.317-1.891L49.022 54.31a.937.937 0 001.654-.303l.478-1.677c.73-2.57.806-5.28.22-7.887l-4.649-20.562zM19.835 52.34L17.38 48.9l2.562-1.946-.105 5.386zM9.032 11.273a14.123 14.123 0 016.76-.187l18.49 4.031-7.306 7.306a71.48 71.48 0 00-1.219 1.272L9.011 11.28l.02-.005zM11.196 42.5l-4.032-2.882 6.125.13-.97 1.277-1.123 1.475zM31.5 35.834l-11.147 8.463-6.844 5.175a.956.956 0 01-1.239-.072l-1.664-1.664a.961.961 0 01-.079-1.242l3.375-4.45 1.999-2.625c.01-.012.013-.026.022-.04l8.25-10.885c.768-1.02 1.576-2 2.398-2.911 0 0 1.125-1.22 1.65-1.75L42.188 9.86a17.887 17.887 0 0110.38-5.085s1.907-.233 1.946-.233a.944.944 0 01.937 1.062l-.224 1.826c-.5 3.928-2.29 7.58-5.087 10.383 0 0-14.087 14.082-14.188 14.181-.523.515-1.006.969-1.483 1.382a40.844 40.844 0 01-2.969 2.458zM49.388 51.67L36.367 34.196c.06-.056 8.79-8.747 8.79-8.747l4.387 19.407c.507 2.25.455 4.59-.152 6.814h-.004z" fill="var(--color-2)"/><path d="M16.742 41.933l-3.978 3.977a.94.94 0 00.296 1.542.936.936 0 001.03-.216l3.978-3.978a.938.938 0 00-1.326-1.325zM6.763 31.004a.938.938 0 001.325 0l8.003-8.001a.938.938 0 00-1.326-1.326l-8.002 8.002a.938.938 0 000 1.325zM22.046 8.787a.938.938 0 00.662-.274l5.143-5.144a.937.937 0 10-1.326-1.325l-5.142 5.143a.937.937 0 00.663 1.6zM7.802 18.73a.938.938 0 10-1.326-1.325l-4.251 4.251a.939.939 0 101.326 1.326l4.251-4.252zM43.145 51.327l-5.143 5.142a.936.936 0 00.66 1.612.937.937 0 00.665-.286l5.144-5.142a.938.938 0 00-1.326-1.326zM39.1 44.992a.938.938 0 00-1.325 0L26.847 55.92a.937.937 0 101.325 1.326l10.929-10.929a.938.938 0 000-1.325zM57.85 38.712a.938.938 0 00-1.325 0l-3.75 3.75a.937.937 0 101.326 1.326l3.75-3.75a.938.938 0 000-1.326z" fill="var(--color-2)"/></svg>