<svg width="20" height="21" viewBox="0 0 20 21" fill="none" xmlns="http://www.w3.org/2000/svg"><path d="M13.655 8.191a.873.873 0 001.24-.005.876.876 0 00-.006-1.24l-1.584-1.568h2.404a2.536 2.536 0 012.533 2.53l.001 2.086a.876.876 0 001.752-.002l-.001-2.086a4.29 4.29 0 00-4.285-4.28h-2.327l1.507-1.494A.876.876 0 0013.655.887l-1.976 1.959a2.368 2.368 0 00-.707 1.693c0 .64.25 1.242.707 1.694l1.976 1.958zM19.078 14.32c-1.073-1.034-1.974-1.632-2.839-1.882-.831-.24-2.082-.272-3.321.939a.083.083 0 00-.005.005l-.96.953c-.653-.375-1.843-1.15-3.126-2.434l-.1-.1c-1.283-1.283-2.059-2.473-2.433-3.124l.953-.96a.11.11 0 01.005-.006c1.21-1.24 1.179-2.49.938-3.321-.25-.865-.847-1.767-1.881-2.839a2.99 2.99 0 00-4.165-.15l-.022.02a.922.922 0 00-.034.032C.953 2.588.358 4.173.368 6.039c.015 3.145 1.74 6.737 4.612 9.61a18.57 18.57 0 001.828 1.591.876.876 0 101.066-1.39 16.8 16.8 0 01-1.655-1.44c-2.553-2.554-4.086-5.686-4.1-8.38-.006-1.378.406-2.526 1.192-3.322l.003-.003a1.244 1.244 0 011.733.063C6.95 4.74 6.838 5.625 6 6.485L4.597 7.898a.876.876 0 00-.179.974c.036.081.907 2.006 3.07 4.17l.1.099c2.163 2.162 4.088 3.033 4.169 3.07.33.147.717.076.973-.18l1.414-1.403c.86-.838 1.744-.95 3.717.953.487.47.514 1.23.063 1.733l-.003.003c-.796.787-1.944 1.2-3.322 1.192-1.1-.006-2.377-.308-3.692-.875a.877.877 0 00-.694 1.609c1.551.669 3.024 1.012 4.377 1.019h.043c1.847 0 3.417-.595 4.543-1.721a.822.822 0 00.033-.034l.019-.022a2.99 2.99 0 00-.15-4.165z" fill="#393939"/></svg>