
<svg display="none">
    <defs>
        <g id="warehouse">
            <path xmlns="http://www.w3.org/2000/svg" fill="var(--color-2)" d="M34.741 12.307h1.874v1.773h-1.874v-1.773zM38.489 12.307h1.874v1.773H38.49v-1.773zM23.494 12.307h1.874v1.773h-1.874v-1.773zM19.746 12.307h1.875v1.773h-1.875v-1.773zM10.325 33.81H8.552V28.24h4.635v1.772h-2.862v3.8z"/><path xmlns="http://www.w3.org/2000/svg" fill="var(--color-1)" d="M30 .9L1.8 16.8h56.7L30 .9z"/><path xmlns="http://www.w3.org/2000/svg" fill="var(--color-2)" d="M59.334 16.056L30.055 0l-12.61 6.915.853 1.554L30.055 2.02l25.592 14.035H4.462l10.639-5.834-.853-1.554L.776 16.056H.117V60h6.458V26.263h33.789V24.49H1.89v-6.662h56.33v6.662H43.175v1.773h10.36V60h6.458V16.056h-.66zM4.803 58.227H1.89V26.264h2.913v31.964zm53.417 0h-2.913V26.264h2.913v31.964z"/><path xmlns="http://www.w3.org/2000/svg" fill="var(--color-2)" d="M33.753 9.445a3.701 3.701 0 00-3.697-3.697 3.702 3.702 0 00-3.698 3.697 3.702 3.702 0 003.698 3.698 3.702 3.702 0 003.697-3.698zm-5.623 0c0-1.062.864-1.925 1.926-1.925 1.061 0 1.925.864 1.925 1.925a1.928 1.928 0 01-1.925 1.925 1.928 1.928 0 01-1.926-1.925zM42.237 12.307h1.874v1.773h-1.874v-1.773zM15.998 12.307h1.875v1.773h-1.875v-1.773zM3.816 19.805h52.48v1.772H3.816v-1.772zM15.998 52.605h7.498v1.772h-7.497v-1.772z"/><path xmlns="http://www.w3.org/2000/svg" fill="var(--color-1)" d="M50.4 40.2H9.6v18.9h40.8V40.2z"/><path xmlns="http://www.w3.org/2000/svg" fill="var(--color-2)" d="M8.552 39.484v7.447h1.773v-5.674h5.725v9.372h7.395v-9.372h5.724v16.97H10.325v-8.484H8.552V60h31.812v-1.773h-9.422v-16.97h5.725v9.372h7.395v-9.372h5.725v16.97h-6.611V60h8.383V39.484H8.552zm13.12 1.773v3.85h-3.85v-3.85h3.85zm-3.85 7.6V46.88h3.85v1.976h-3.85zm24.467-7.6v3.85h-3.85v-3.85h3.85zm-3.85 7.6V46.88h3.85v1.976h-3.85z"/><path xmlns="http://www.w3.org/2000/svg" fill="var(--color-2)" d="M36.614 52.605h7.497v1.772h-7.497v-1.772zM49.734 28.239h1.874v1.772h-1.874V28.24zM45.987 28.239h1.874v1.772h-1.874V28.24z"/>
        </g>
        <g id="storage">
            <path xmlns="http://www.w3.org/2000/svg" fill="var(--color-1)" d="M15 38.438v5.624h-3.75v-5.624H4.687v18.75h16.875v-18.75H15zM31.875 38.438v5.624h-3.75v-5.624h-6.563v18.75h16.875v-18.75h-6.562zM48.75 38.438v5.624H45v-5.624h-6.563v18.75h16.876v-18.75H48.75zM23.438 19.688v5.625h-3.75v-5.625h-6.563v18.75H30v-18.75h-6.563zM40.313 19.688v5.625h-3.75v-5.625H30v18.75h16.875v-18.75h-6.563z"/><path xmlns="http://www.w3.org/2000/svg" fill="var(--color-1)" d="M31.875 2.813v3.75h-3.75v-3.75h-6.563v16.875H38.438V2.813h-6.562z"/><path xmlns="http://www.w3.org/2000/svg" fill="var(--color-2)" d="M9.375 53.438H7.5a.938.938 0 000 1.874h1.875a.938.938 0 000-1.874zM9.375 50.625H7.5a.938.938 0 000 1.875h1.875a.938.938 0 000-1.875zM26.25 53.438h-1.875a.938.938 0 000 1.874h1.875a.938.938 0 000-1.874zM26.25 50.625h-1.875a.938.938 0 000 1.875h1.875a.938.938 0 000-1.875zM43.125 53.438H41.25a.938.938 0 000 1.874h1.875a.938.938 0 000-1.874zM43.125 50.625H41.25a.938.938 0 000 1.875h1.875a.938.938 0 000-1.875z"/><path xmlns="http://www.w3.org/2000/svg" fill="var(--color-2)" d="M55.313 37.5h-7.5V19.687a.938.938 0 00-.938-.937h-7.5V2.812a.938.938 0 00-.938-.937H21.564a.937.937 0 00-.938.938V18.75h-7.5a.938.938 0 00-.938.938V37.5h-7.5a.938.938 0 00-.937.938v18.75a.937.937 0 00.938.937h50.624a.938.938 0 00.938-.938v-18.75a.938.938 0 00-.938-.937zm-9.376 1.875h1.876v3.75h-1.876v-3.75zm0-1.875h-15V20.625h4.688v4.688a.938.938 0 00.938.937h3.75a.938.938 0 00.937-.938v-4.687h4.688V37.5zm-16.874 1.875h1.875v3.75h-1.875v-3.75zm10.312-18.75v3.75H37.5v-3.75h1.875zM30.937 3.75v1.875h-1.875V3.75h1.875zm-8.437 0h4.688v2.813a.938.938 0 00.937.937h3.75a.937.937 0 00.938-.938V3.75H37.5v15h-15v-15zm0 16.875v3.75h-1.875v-3.75H22.5zm-8.438 0h4.688v4.688a.938.938 0 00.938.937h3.75a.938.938 0 00.937-.938v-4.687h4.688V37.5h-15V20.625zm0 18.75v3.75h-1.874v-3.75h1.874zm-8.437 0h4.688v4.688a.938.938 0 00.937.937H15a.938.938 0 00.938-.938v-4.687h4.687V56.25h-15V39.375zm16.875 0h4.688v4.688a.938.938 0 00.937.937h3.75a.938.938 0 00.938-.938v-4.687H37.5V56.25h-15V39.375zM54.375 56.25h-15V39.375h4.688v4.688A.938.938 0 0045 45h3.75a.938.938 0 00.938-.938v-4.687h4.687V56.25z"/><path xmlns="http://www.w3.org/2000/svg" fill="var(--color-2)" d="M15.938 36.563h1.874a.938.938 0 000-1.876h-1.875a.938.938 0 000 1.876zM15.938 33.75h1.874a.938.938 0 000-1.875h-1.875a.938.938 0 000 1.875zM34.688 34.688h-1.876a.938.938 0 000 1.874h1.876a.938.938 0 000-1.874zM34.688 31.875h-1.876a.938.938 0 000 1.875h1.876a.938.938 0 000-1.875zM24.375 15h1.875a.938.938 0 000-1.875h-1.875a.938.938 0 000 1.875zM24.375 17.813h1.875a.938.938 0 000-1.875h-1.875a.938.938 0 000 1.874z"/>
        </g>
        <g id="package">
            <path xmlns="http://www.w3.org/2000/svg" fill="var(--color-1)" d="M30 23.438l-10.1-3.831-.212.08v15.854l-6.563-2.513V17.036L2.812 13.125v33.75L30 57.319l27.188-10.35V13.125L30 23.438z"/><path xmlns="http://www.w3.org/2000/svg" fill="var(--color-1)" d="M2.813 13.125l10.312 3.911v-.161l13.762-5.222 6.994 2.653-13.98 5.3L30 23.438l27.188-10.312L30 2.812 2.812 13.126z"/><path xmlns="http://www.w3.org/2000/svg" fill="var(--color-2)" d="M57.52 12.248L30.331 1.936a.931.931 0 00-.664 0L2.481 12.248a.938.938 0 00-.606.877v33.75a.937.937 0 00.602.876l27.187 10.443a.938.938 0 00.669 0l27.187-10.35a.938.938 0 00.605-.875V13.125a.937.937 0 00-.606-.877zM30 3.815l24.545 9.31L30 22.435l-7.456-2.828 11.67-4.42a.938.938 0 000-1.753l-6.995-2.653a.938.938 0 00-.664 0l-13.643 5.172-7.457-2.828L30 3.815zm-15.938 14.58l4.688 1.78v14.003l-4.688-1.795V18.395zm1.493-1.44l11.332-4.299 4.35 1.65L19.9 18.604l-4.345-1.648zM3.75 14.484l8.438 3.201v15.344a.938.938 0 00.602.876l6.563 2.512a.937.937 0 001.272-.875V20.884l8.438 3.2v31.87L3.75 46.23V14.483zm27.188 41.475V24.083l25.312-9.6v31.84l-25.313 9.635z"/><path xmlns="http://www.w3.org/2000/svg" fill="var(--color-2)" d="M39.978 46.893l-5.638 2.146a.937.937 0 10.666 1.752l5.638-2.146a.936.936 0 00-.302-1.82.938.938 0 00-.364.068zM45.597 44.754l-1.887.718a.938.938 0 10.667 1.752l1.887-.718a.938.938 0 10-.667-1.752zM39.978 43.143l-5.638 2.146a.937.937 0 10.666 1.752l5.638-2.146a.936.936 0 00-.302-1.82.938.938 0 00-.364.068zM45.597 41.004l-1.887.718a.938.938 0 10.667 1.752l1.887-.718a.938.938 0 10-.667-1.752zM39.978 39.393l-5.638 2.146a.937.937 0 10.666 1.752l5.638-2.146a.936.936 0 00-.302-1.82.938.938 0 00-.364.068zM45.597 37.254l-1.887.718a.938.938 0 10.667 1.752l1.887-.718a.938.938 0 10-.667-1.752z"/>
        </g>
        <g id="trolley">
            <path xmlns="http://www.w3.org/2000/svg" fill="#B1D5FF" d="M35.907 33.993l3.136-.553-3.136.553z"/><path xmlns="http://www.w3.org/2000/svg" fill="#FFF0D9" d="M32.741 51.686a4.688 4.688 0 10-9.233 1.628 4.688 4.688 0 009.233-1.628zm-4.29 2.66a1.875 1.875 0 11-.65-3.692 1.875 1.875 0 01.65 3.693zM4.725 6.172a1.875 1.875 0 10.65 3.693l5.54-.977-.321-1.847-.325-1.845-5.544.976z"/><path xmlns="http://www.w3.org/2000/svg" fill="var(--color-1)" d="M51.046 31.323l-8.31 1.465.652 3.693-3.693.651-.652-3.692-3.136.553-3.326.586-1.847.326 2.605 14.771 20.311-3.581-2.604-14.772z"/><path xmlns="http://www.w3.org/2000/svg" fill="#B1D5FF" d="M39.043 33.44l3.694-.652-3.694.652z"/><path xmlns="http://www.w3.org/2000/svg" fill="var(--color-1)" d="M46.92 18.723l-6.462 1.14.65 3.693-3.692.651-.652-3.694-6.462 1.14L32.58 34.58l3.326-.586 3.136-.553 3.694-.652 6.462-1.139-2.28-12.926z"/><path xmlns="http://www.w3.org/2000/svg" fill="#B1D5FF" d="M35.907 33.993l-3.326.586 3.326-.586zM39.043 33.44l3.694-.652-3.694.652zM40.458 19.863l-1.847.325 1.847-.325z"/><path xmlns="http://www.w3.org/2000/svg" fill="var(--color-1)" d="M42.522 9.979l-3.692.651.488 2.77-3.693.651-.488-2.77-3.693.651 1.627 9.233 11.08-1.954-1.629-9.232z"/><path xmlns="http://www.w3.org/2000/svg" fill="#B1D5FF" d="M35.137 11.28l1.847-.324-1.847.325z"/><path xmlns="http://www.w3.org/2000/svg" fill="var(--color-2)" d="M30.894 52.012a2.813 2.813 0 10-5.54.976 2.813 2.813 0 005.54-.976zm-2.605 1.41a.937.937 0 01-.328-1.844.937.937 0 01.328 1.845zM35.131 44.587c.055 0 .11-.005.163-.015l3.694-.65a.938.938 0 00-.326-1.847l-3.693.65a.937.937 0 00.162 1.862zM35.457 45.495a.938.938 0 10.326 1.846l3.693-.65a.937.937 0 00-.325-1.846l-3.694.65zM34.373 29.488c.055 0 .11-.005.163-.015l1.846-.324a.936.936 0 10-.324-1.846l-1.847.325a.938.938 0 00.162 1.86zM34.7 30.398a.938.938 0 00.325 1.846l1.847-.326a.936.936 0 10-.326-1.846l-1.846.326z"/><path xmlns="http://www.w3.org/2000/svg" fill="var(--color-2)" d="M58.267 45.281a.937.937 0 00-1.086-.761l-2.77.488-2.438-13.85a.937.937 0 00-1.086-.759l-.924.163-2.12-12a.938.938 0 00-1.086-.76l-1.846.326-1.465-8.31a.937.937 0 00-1.086-.76L31.28 11.01a.937.937 0 00-.759 1.086l1.465 8.31-1.848.325a.938.938 0 00-.76 1.087l2.117 12-.924.163a.938.938 0 00-.76 1.085l2.39 13.557a5.581 5.581 0 00-2.156-1.407l-5.5-31.21a4.687 4.687 0 00-4.49-3.872l-.504-2.863a4.687 4.687 0 00-5.43-3.802l-2.77.489-.164-.924a.937.937 0 00-1.086-.76l-5.538.977a2.813 2.813 0 10.976 5.539l5.54-.977a.937.937 0 00.76-1.086l-.163-.923 2.77-.49a2.82 2.82 0 013.259 2.281l.65 3.694 6.159 34.926a5.614 5.614 0 002.766 9.85 5.615 5.615 0 006.127-3.64l21.062-3.713a4.693 4.693 0 003.798-5.43zM40.023 22.794l-1.846.327-.326-1.846 1.846-.326.326 1.845zm-1.79-10.155l-1.848.326-.163-.923 1.847-.326.163.923zm-5.704.054l1.847-.325.327 1.845a.938.938 0 00.921.775c.054 0 3.857-.666 3.857-.666a.937.937 0 00.76-1.085l-.326-1.846 1.847-.326 1.303 7.386-9.232 1.628-1.304-7.386zm3.476 8.906l.488 2.77a.938.938 0 00.922.774c.054 0 3.857-.666 3.857-.666a.938.938 0 00.76-1.085l-.489-2.767 4.616-.814 1.954 11.079-14.772 2.603-1.954-11.08 4.618-.814zM5.213 8.942a.95.95 0 01-.7-.156.937.937 0 01.374-1.687l4.617-.818.164.924.162.921-4.617.816zm33.07 25.583l.488 2.77a.938.938 0 00.924.775c.053 0 3.856-.666 3.856-.666a.937.937 0 00.76-1.086l-.489-2.77 2.568-.452 2.972-.524.923-.164 2.279 12.926-18.469 3.257-2.275-12.926 6.464-1.14zm4.019 1.194l-1.847.325-.325-1.847 1.846-.325.326 1.847zm-21.91-21.676c.413.069.806.23 1.15.469a2.8 2.8 0 011.158 1.816l5.387 30.549a5.675 5.675 0 00-.938.081c-.309.06-.613.144-.907.254l-5.85-33.17zm8.384 42.15a3.75 3.75 0 01-1.302-7.386 3.75 3.75 0 111.298 7.386h.004zm25.363-7.328l-20.394 3.597a5.665 5.665 0 00-.081-.938 5.599 5.599 0 00-.253-.907l23.014-4.058a2.82 2.82 0 01-2.286 2.306z"/><path xmlns="http://www.w3.org/2000/svg" fill="var(--color-2)" d="M37.363 18.503a.937.937 0 00-.326-1.845l-1.847.326a.937.937 0 10.326 1.846l1.847-.327z"/>
        </g>
        <g id="ship">
            <path xmlns="http://www.w3.org/2000/svg" fill="var(--color-1)" d="M35.625 11.25H30v8.438h11.25V11.25h-5.625zM24.375 11.25H18.75v8.438H30V11.25h-5.625z"/><path xmlns="http://www.w3.org/2000/svg" fill="var(--color-1)" d="M30 22.5l5.625 1.607v-4.42h-11.25v4.42L30 22.5zM46.875 27.322v-7.634h-11.25v4.419l11.25 3.215zM24.375 19.688h-11.25v7.634l11.25-3.215v-4.42zM51.756 40.313c-2.72 0-2.72 3.75-5.438 3.75-2.719 0-2.719-3.75-5.437-3.75-2.72 0-2.72 3.75-5.438 3.75-2.719 0-2.719-3.75-5.437-3.75-2.72 0-2.72 3.75-5.438 3.75-2.719 0-2.719-3.75-5.437-3.75-2.72 0-2.72 3.75-5.438 3.75-2.719 0-2.719-3.75-5.444-3.75s-2.718 3.75-5.437 3.75v6.562c2.72 0 2.72-3.75 5.444-3.75 2.724 0 2.718 3.75 5.444 3.75 2.725 0 2.718-3.75 5.437-3.75 2.719 0 2.719 3.75 5.438 3.75 2.718 0 2.718-3.75 5.437-3.75 2.719 0 2.719 3.75 5.438 3.75 2.718 0 2.718-3.75 5.437-3.75 2.719 0 2.719 3.75 5.438 3.75 2.718 0 2.718-3.75 5.437-3.75 2.719 0 2.707 3.75 5.425 3.75v-6.563c-2.718 0-2.718-3.75-5.431-3.75z"/><path xmlns="http://www.w3.org/2000/svg" fill="var(--color-1)" d="M51.756 46.875c-2.72 0-2.72 3.75-5.438 3.75-2.719 0-2.719-3.75-5.437-3.75-2.72 0-2.72 3.75-5.438 3.75-2.719 0-2.719-3.75-5.437-3.75-2.72 0-2.72 3.75-5.438 3.75-2.719 0-2.719-3.75-5.437-3.75-2.72 0-2.72 3.75-5.438 3.75-2.719 0-2.719-3.75-5.444-3.75s-2.718 3.75-5.437 3.75v6.563c2.72 0 2.72-3.75 5.444-3.75 2.724 0 2.718 3.75 5.444 3.75 2.725 0 2.718-3.75 5.437-3.75 2.719 0 2.719 3.75 5.438 3.75 2.718 0 2.718-3.75 5.437-3.75 2.719 0 2.719 3.75 5.438 3.75 2.718 0 2.718-3.75 5.437-3.75 2.719 0 2.719 3.75 5.438 3.75 2.718 0 2.718-3.75 5.437-3.75 2.719 0 2.707 3.75 5.425 3.75v-6.563c-2.718 0-2.718-3.75-5.431-3.75z"/><path xmlns="http://www.w3.org/2000/svg" fill="var(--color-2)" d="M57.188 58.125c-1.837 0-2.745-1.254-3.476-2.263-.687-.95-1.118-1.487-1.955-1.487-.838 0-1.27.537-1.959 1.488-.73 1.008-1.639 2.262-3.476 2.262-1.838 0-2.747-1.254-3.477-2.262-.69-.95-1.12-1.488-1.96-1.488-.84 0-1.27.537-1.96 1.488-.73 1.008-1.639 2.262-3.476 2.262-1.838 0-2.747-1.254-3.477-2.262-.69-.95-1.12-1.488-1.96-1.488-.84 0-1.271.537-1.96 1.488-.73 1.008-1.64 2.262-3.478 2.262-1.839 0-2.746-1.254-3.477-2.262-.688-.95-1.118-1.488-1.958-1.488-.84 0-1.271.537-1.96 1.488-.731 1.008-1.64 2.262-3.48 2.262-1.838 0-2.749-1.254-3.48-2.262-.69-.95-1.12-1.488-1.962-1.488-.842 0-1.274.537-1.97 1.489-.725 1.007-1.636 2.261-3.474 2.261a.938.938 0 010-1.875c.843 0 1.273-.537 1.963-1.489.73-1.007 1.641-2.261 3.48-2.261 1.84 0 2.75 1.254 3.48 2.261.69.952 1.126 1.489 1.964 1.489.838 0 1.27-.537 1.96-1.488.731-1.008 1.642-2.262 3.48-2.262 1.837 0 2.746 1.254 3.476 2.262.688.95 1.119 1.488 1.958 1.488s1.271-.537 1.96-1.488c.731-1.008 1.64-2.262 3.478-2.262 1.838 0 2.747 1.254 3.477 2.262.69.95 1.12 1.488 1.96 1.488.84 0 1.27-.537 1.96-1.488.73-1.008 1.639-2.262 3.476-2.262 1.838 0 2.747 1.254 3.477 2.262.69.95 1.12 1.488 1.96 1.488.84 0 1.27-.537 1.957-1.488.73-1.008 1.64-2.262 3.478-2.262 1.837 0 2.744 1.254 3.474 2.262.688.95 1.117 1.488 1.956 1.488a.938.938 0 010 1.875zM57.188 51.563c-1.837 0-2.745-1.255-3.476-2.264-.687-.95-1.118-1.486-1.955-1.486-.838 0-1.27.537-1.959 1.487-.73 1.008-1.639 2.263-3.476 2.263-1.838 0-2.747-1.255-3.477-2.263-.69-.95-1.12-1.487-1.96-1.487-.84 0-1.27.537-1.96 1.487-.73 1.008-1.639 2.263-3.476 2.263-1.838 0-2.747-1.255-3.477-2.263-.69-.95-1.12-1.487-1.96-1.487-.84 0-1.271.537-1.96 1.487-.73 1.008-1.64 2.263-3.478 2.263-1.839 0-2.746-1.255-3.477-2.263-.688-.95-1.118-1.487-1.958-1.487-.84 0-1.271.537-1.96 1.487-.731 1.008-1.64 2.263-3.48 2.263-1.838 0-2.749-1.255-3.48-2.263-.69-.95-1.12-1.487-1.962-1.487-.842 0-1.274.537-1.97 1.488-.725 1.007-1.636 2.261-3.474 2.261a.938.938 0 010-1.874c.843 0 1.273-.538 1.963-1.49.73-1.006 1.641-2.26 3.48-2.26 1.84 0 2.75 1.254 3.48 2.26.69.952 1.126 1.49 1.964 1.49.838 0 1.27-.538 1.96-1.488.731-1.008 1.642-2.263 3.48-2.263 1.837 0 2.746 1.255 3.476 2.263.688.95 1.119 1.487 1.958 1.487s1.271-.537 1.96-1.487c.731-1.008 1.64-2.263 3.478-2.263 1.838 0 2.747 1.255 3.477 2.263.69.95 1.12 1.487 1.96 1.487.84 0 1.27-.537 1.96-1.487.73-1.008 1.639-2.263 3.476-2.263 1.838 0 2.747 1.255 3.477 2.263.69.95 1.12 1.487 1.96 1.487.84 0 1.27-.537 1.957-1.487.73-1.008 1.64-2.263 3.478-2.263 1.837 0 2.744 1.255 3.474 2.263.688.95 1.117 1.487 1.956 1.487a.938.938 0 010 1.876zM57.188 43.125c-.844 0-1.269-.537-1.957-1.488-.73-1.008-1.639-2.262-3.474-2.262-1.836 0-2.747 1.254-3.478 2.262-.688.95-1.118 1.488-1.957 1.488-.84 0-1.27-.537-1.96-1.488l-.075-.102 6.244-13.004a.937.937 0 00-.587-1.308l-2.132-.61v-6.925a.938.938 0 00-.937-.938h-4.688v-7.5a.938.938 0 00-.937-.938h-4.688v-7.5a.938.938 0 00-.937-.937h-11.25a.937.937 0 00-.938.938v7.5H18.75a.938.938 0 00-.938.937v7.5h-4.687a.938.938 0 00-.938.938v6.926l-2.132.61a.94.94 0 00-.587 1.307l6.254 13.023-.061.083c-.69.95-1.12 1.488-1.961 1.488s-1.274-.537-1.963-1.489c-.732-1.007-1.642-2.261-3.48-2.261-1.839 0-2.75 1.254-3.481 2.261-.69.952-1.12 1.489-1.963 1.489a.938.938 0 000 1.875c1.838 0 2.75-1.254 3.48-2.261.69-.952 1.122-1.489 1.964-1.489.841 0 1.273.537 1.962 1.488C10.95 43.746 11.86 45 13.699 45c1.84 0 2.749-1.254 3.48-2.262.689-.95 1.12-1.488 1.96-1.488.84 0 1.27.537 1.959 1.488.73 1.008 1.64 2.262 3.476 2.262s2.748-1.254 3.478-2.262c.689-.95 1.125-1.488 1.96-1.488s1.27.537 1.96 1.488c.73 1.008 1.64 2.262 3.477 2.262s2.747-1.254 3.477-2.262c.689-.95 1.12-1.488 1.96-1.488.84 0 1.27.537 1.959 1.488.73 1.008 1.64 2.262 3.477 2.262s2.746-1.254 3.476-2.262c.688-.95 1.119-1.488 1.959-1.488.84 0 1.268.537 1.955 1.487.73 1.009 1.639 2.263 3.475 2.263a.938.938 0 000-1.875zm-11.25-17.047L36.562 23.4v-2.775h9.376v5.453zm-15.68-4.48a.945.945 0 00-.516 0l-4.43 1.266v-2.239h9.375v2.239l-4.43-1.266zm10.055-2.848h-9.376v-6.563h9.375v6.563zm-15-15h9.375v6.563h-9.376V3.75zm-5.625 8.438h9.375v6.562h-9.375v-6.563zm-5.625 8.437h9.374V23.4l-9.375 2.678v-5.453zm26.822 18.75c-1.837 0-2.747 1.254-3.477 2.262-.689.95-1.12 1.488-1.96 1.488-.84 0-1.27-.537-1.959-1.488-.73-1.008-1.64-2.262-3.477-2.262s-2.747 1.254-3.478 2.262c-.689.95-1.12 1.488-1.96 1.488-.841 0-1.27-.537-1.958-1.488-.73-1.008-1.64-2.262-3.477-2.262a3.298 3.298 0 00-2.055.684L11.64 28.721l17.424-4.978v9.07a.938.938 0 001.875 0v-9.07l17.423 4.978-5.438 11.326a3.293 3.293 0 00-2.038-.672z"/><path xmlns="http://www.w3.org/2000/svg" fill="var(--color-2)" d="M25.313 28.125a.937.937 0 01-.42-1.776l1.875-.938a.939.939 0 01.838 1.678l-1.875.938a.937.937 0 01-.418.098z"/>
        </g>
        <g id="airplane">
            <path xmlns="http://www.w3.org/2000/svg" fill="var(--color-1)" d="M54.282 3.619l-1.828.225a18.74 18.74 0 00-10.932 5.353l-5.364 5.364-8.524 8.524a45.751 45.751 0 00-1.757 1.863 44.1 44.1 0 00-2.456 2.981l-8.27 10.921-.713.938-3.047 4.003-1.612 2.137a1.895 1.895 0 00.159 2.466l1.669 1.669a1.895 1.895 0 002.465.159l2.016-1.519 3.89-2.953.938-.703 11.156-8.466A43 43 0 0035.1 34.07a34.745 34.745 0 001.761-1.651c.017-.018.037-.034.054-.052l8.782-8.782 5.107-5.106a18.74 18.74 0 005.353-10.931l.225-1.828a1.882 1.882 0 00-2.1-2.1z"/><path xmlns="http://www.w3.org/2000/svg" fill="#B1D5FF" d="M25.875 24.947c.57-.637 1.153-1.26 1.757-1.863l8.524-8.524-8.518 8.521c-.61.61-1.19 1.228-1.763 1.866zM36.914 32.366l-.053.052c.019-.02.04-.037.058-.056l8.778-8.777-8.783 8.781z"/><path xmlns="http://www.w3.org/2000/svg" fill="var(--color-2)" d="M46.725 23.882l4.744-4.741a19.793 19.793 0 005.625-11.48l.224-1.828a2.82 2.82 0 00-3.145-3.145l-1.83.226A19.781 19.781 0 0040.86 8.53l-5.002 5.003L16.19 9.25a15.989 15.989 0 00-7.66.219l-1.868.52a.937.937 0 00-.308 1.655L24.506 25.1a44.283 44.283 0 00-1.833 2.263l-7.988 10.54-10.521-.225h-.02a.938.938 0 00-.545 1.697l6.469 4.618-1.04 1.374a2.85 2.85 0 00.247 3.69l1.673 1.673a2.85 2.85 0 003.687.241l1.246-.944 4.075 5.708a.938.938 0 001.7-.526l.188-9.7 10.793-8.18c.81-.613 1.579-1.25 2.317-1.891L49.022 54.31a.937.937 0 001.654-.303l.478-1.677c.73-2.57.806-5.28.22-7.887l-4.649-20.562zM19.835 52.34L17.38 48.9l2.562-1.946-.105 5.386zM9.032 11.273a14.123 14.123 0 016.76-.187l18.49 4.031-7.306 7.306a71.48 71.48 0 00-1.219 1.272L9.011 11.28l.02-.005zM11.196 42.5l-4.032-2.882 6.125.13-.97 1.277-1.123 1.475zM31.5 35.834l-11.147 8.463-6.844 5.175a.956.956 0 01-1.239-.072l-1.664-1.664a.961.961 0 01-.079-1.242l3.375-4.45 1.999-2.625c.01-.012.013-.026.022-.04l8.25-10.885c.768-1.02 1.576-2 2.398-2.911 0 0 1.125-1.22 1.65-1.75L42.188 9.86a17.887 17.887 0 0110.38-5.085s1.907-.233 1.946-.233a.944.944 0 01.937 1.062l-.224 1.826c-.5 3.928-2.29 7.58-5.087 10.383 0 0-14.087 14.082-14.188 14.181-.523.515-1.006.969-1.483 1.382a40.844 40.844 0 01-2.969 2.458zM49.388 51.67L36.367 34.196c.06-.056 8.79-8.747 8.79-8.747l4.387 19.407c.507 2.25.455 4.59-.152 6.814h-.004z"/><path xmlns="http://www.w3.org/2000/svg" fill="var(--color-2)" d="M16.742 41.933l-3.978 3.977a.94.94 0 00.296 1.542.936.936 0 001.03-.216l3.978-3.978a.938.938 0 00-1.326-1.325zM6.763 31.004a.938.938 0 001.325 0l8.003-8.001a.938.938 0 00-1.326-1.326l-8.002 8.002a.938.938 0 000 1.325zM22.046 8.787a.938.938 0 00.662-.274l5.143-5.144a.937.937 0 10-1.326-1.325l-5.142 5.143a.937.937 0 00.663 1.6zM7.802 18.73a.938.938 0 10-1.326-1.325l-4.251 4.251a.939.939 0 101.326 1.326l4.251-4.252zM43.145 51.327l-5.143 5.142a.936.936 0 00.66 1.612.937.937 0 00.665-.286l5.144-5.142a.938.938 0 00-1.326-1.326zM39.1 44.992a.938.938 0 00-1.325 0L26.847 55.92a.937.937 0 101.325 1.326l10.929-10.929a.938.938 0 000-1.325zM57.85 38.712a.938.938 0 00-1.325 0l-3.75 3.75a.937.937 0 101.326 1.326l3.75-3.75a.938.938 0 000-1.326z"/>
        </g>
        <g id="packages">
            <path xmlns="http://www.w3.org/2000/svg" fill="var(--color-1)" d="M15 53.438h42.188v-5.626H2.812v5.626H15z"/><path xmlns="http://www.w3.org/2000/svg" fill="#FFF0D9" d="M15 53.438H7.5v3.75H15v-3.75zM52.5 53.438H45v3.75h7.5v-3.75z"/><path xmlns="http://www.w3.org/2000/svg" fill="var(--color-1)" d="M20.625 23.438v5.625H15v-5.625H5.625v20.625H30V23.436h-9.375zM45 23.438v5.625h-5.625v-5.625H30v20.625h24.375V23.436H45z"/><path xmlns="http://www.w3.org/2000/svg" fill="var(--color-1)" d="M32.813 2.813v5.624h-5.626V2.814h-9.375v20.625h24.376V2.813h-9.376z"/><path xmlns="http://www.w3.org/2000/svg" fill="var(--color-2)" d="M57.188 46.875H2.812a.938.938 0 00-.937.938v5.624a.937.937 0 00.938.938h3.75v2.813a.937.937 0 00.937.937H15a.938.938 0 00.938-.938v-2.812h28.124v2.813a.938.938 0 00.938.937h7.5a.938.938 0 00.938-.938v-2.812h3.75a.938.938 0 00.937-.938v-5.624a.938.938 0 00-.938-.938zM14.062 56.25H8.439v-1.875h5.624v1.875zm37.5 0h-5.624v-1.875h5.624v1.875zm4.688-3.75H3.75v-3.75h52.5v3.75zM5.625 45h48.75a.938.938 0 00.938-.938V23.439a.938.938 0 00-.938-.938h-11.25V2.812a.938.938 0 00-.938-.937H17.814a.937.937 0 00-.938.938V22.5H5.625a.938.938 0 00-.938.938v20.625a.937.937 0 00.938.937zm47.813-1.875h-22.5v-18.75h7.5v4.688a.938.938 0 00.937.937H45a.938.938 0 00.938-.938v-4.687h7.5v18.75zm-9.376-15h-3.75v-3.75h3.75v3.75zM31.876 3.75V7.5h-3.75V3.75h3.75zm-13.125 0h7.5v4.688a.938.938 0 00.938.937h5.625a.937.937 0 00.937-.938V3.75h7.5V22.5h-22.5V3.75zm.938 20.625v3.75h-3.75v-3.75h3.75zm-13.125 0h7.5v4.688A.938.938 0 0015 30h5.625a.938.938 0 00.938-.938v-4.687h7.5v18.75h-22.5v-18.75z"/><path xmlns="http://www.w3.org/2000/svg" fill="var(--color-2)" d="M13.125 39.375h-3.75a.938.938 0 000 1.875h3.75a.938.938 0 000-1.875zM13.125 36.563h-3.75a.938.938 0 000 1.874h3.75a.938.938 0 000-1.874zM16.875 36.563h-.938a.938.938 0 000 1.874h.938a.938.938 0 000-1.874zM16.875 39.375h-.938a.938.938 0 000 1.875h.938a.938.938 0 000-1.875zM21.563 20.625h3.75a.938.938 0 000-1.875h-3.75a.938.938 0 000 1.875zM21.563 17.813h3.75a.938.938 0 000-1.875h-3.75a.938.938 0 000 1.874zM28.125 17.813h.938a.938.938 0 000-1.875h-.938a.938.938 0 000 1.874zM28.125 20.625h.938a.938.938 0 000-1.875h-.938a.938.938 0 000 1.875zM37.5 39.375h-3.75a.938.938 0 000 1.875h3.75a.938.938 0 000-1.875zM37.5 36.563h-3.75a.938.938 0 000 1.874h3.75a.938.938 0 000-1.874zM41.25 36.563h-.938a.938.938 0 000 1.874h.938a.938.938 0 000-1.874zM41.25 39.375h-.938a.938.938 0 000 1.875h.938a.938.938 0 000-1.875z"/>
        </g>
        <g id="product">
            <path xmlns="http://www.w3.org/2000/svg" fill="var(--color-1)" d="M30 15.938l-5.625-2.461v6.21l-3.75-1.875v-5.976L15 9.375v18.75l15 7.631 15-7.537V9.375l-15 6.563zM15.938 51.563H2.811v5.624h13.126v-5.624zM46.875 51.563h-2.813v5.624h13.126v-5.624H46.874z"/><path xmlns="http://www.w3.org/2000/svg" fill="var(--color-1)" d="M20.625 11.597l6.694-2.925 4.022 1.753-6.966 3.047v.005L30 15.937l15-6.562-15-6.563-15 6.563 5.625 2.46v-.238z"/><path xmlns="http://www.w3.org/2000/svg" fill="var(--color-2)" d="M15.938 50.625H14.87a6.545 6.545 0 001.066-3.578v-2.358a4.67 4.67 0 00-.254-1.524l-2.9-8.43a2.818 2.818 0 00-1.908-1.97l1.767-6.602a2.781 2.781 0 00-1.115-3.04 2.623 2.623 0 00-.844-.4 2.653 2.653 0 00-.75-.105 2.78 2.78 0 00-2.706 2.038L2.225 40.031a4.732 4.732 0 00-.128 2.42l1.446 5.617c.137.533.207 1.081.207 1.632v.925h-.938a.938.938 0 00-.937.937v5.625a.937.937 0 00.938.938h13.124a.938.938 0 00.938-.938v-5.625a.938.938 0 00-.938-.937zm-10.58-3.028l-1.434-5.568a2.813 2.813 0 01.084-1.422L9.026 25.18a.926.926 0 011.145-.65.829.829 0 01.287.136.921.921 0 01.375 1.012l-1.936 7.227a2.786 2.786 0 00-1.64 2.55 2.58 2.58 0 00.093.729l1.697 6.339a.937.937 0 001.811-.486l-1.7-6.36a.91.91 0 01.594-1.093c.022-.008.111-.038.125-.041a.95.95 0 011.114.739l2.919 8.492c.101.294.153.603.152.914v2.358c.001.925-.273 1.83-.787 2.6l-.652.978H5.625V49.7c0-.71-.09-1.416-.266-2.103zM15 56.25H3.75V52.5H15v3.75zM43.125 51.563v5.624a.938.938 0 00.938.938h13.124a.937.937 0 00.938-.938v-5.624a.938.938 0 00-.938-.938h-.937V49.7c0-.552.07-1.102.207-1.636l1.446-5.618a4.732 4.732 0 00-.128-2.42l-5.002-15.37a2.78 2.78 0 00-2.701-2.034 2.653 2.653 0 00-.75.104 2.625 2.625 0 00-.844.401 2.78 2.78 0 00-1.116 3.04l1.763 6.602a2.818 2.818 0 00-1.909 1.97l-2.9 8.43a4.67 4.67 0 00-.254 1.52v2.358c.001 1.27.372 2.514 1.067 3.578h-1.066a.938.938 0 00-.938.938zm11.25-1.863v.925h-6.998l-.652-.978a4.675 4.675 0 01-.788-2.6v-2.358c0-.311.052-.62.153-.913l2.919-8.493a.95.95 0 011.114-.739c.014 0 .103.033.124.04a.91.91 0 01.595 1.093l-1.704 6.361a.938.938 0 001.811.486l1.697-6.34a2.58 2.58 0 00.094-.728 2.786 2.786 0 00-1.637-2.55l-1.935-7.228a.922.922 0 01.375-1.011.925.925 0 011.432.514l5.018 15.425c.15.459.178.949.084 1.422l-1.435 5.568a8.469 8.469 0 00-.267 2.104zM45 52.5h11.25v3.75H45V52.5zM45.375 8.516l-15-6.562a.937.937 0 00-.75 0l-15 6.562a.937.937 0 00-.563.859v18.75a.938.938 0 00.512.835l15 7.632a.938.938 0 00.847.002l15-7.537a.937.937 0 00.517-.838V9.375a.938.938 0 00-.563-.859zM30 3.836l12.66 5.539L30 14.915l-3.29-1.44 5.007-2.191a.938.938 0 000-1.718l-4.023-1.754a.938.938 0 00-.75 0l-6.592 2.881-3.008-1.318L30 3.835zm-8.438 9.433l1.875.82v4.082l-1.875-.938V13.27zm1.125-1.552l4.628-2.022 1.678.732-4.618 2.024-1.688-.734zm-6.75-.909l3.75 1.641v5.364a.937.937 0 00.519.839l3.75 1.875a.939.939 0 001.357-.84v-4.78l3.75 1.64v17.68L15.938 27.55V10.808zm15 23.428V16.55l13.125-5.743V27.64l-13.124 6.596z"/><path xmlns="http://www.w3.org/2000/svg" fill="var(--color-2)" d="M36.148 27.406l-3.757 1.888a.937.937 0 10.844 1.676l3.757-1.889a.938.938 0 00-.844-1.675zM32.813 27.319c.145 0 .29-.034.42-.1l3.703-1.86a.938.938 0 00-.844-1.676l-3.702 1.86a.938.938 0 00.422 1.776z"/>
        </g>
        <g id="protected">
            <path xmlns="http://www.w3.org/2000/svg" fill="var(--color-1)" d="M49.688 15.938L43.124 2.812H29.062l1.875 13.126h18.75zM23.438 2.813H9.374L2.812 15.937h18.75l1.875-13.124zM30.938 15.938v15h-9.375v-15H2.813v37.5H40.74a18.744 18.744 0 01-6.053-13.782v-4.968l11.25-3.75 3.75 1.25v-16.25h-18.75z"/><path xmlns="http://www.w3.org/2000/svg" fill="var(--color-2)" d="M35.625 52.5H3.75V16.875h16.875v14.063a.938.938 0 00.938.937h9.375a.938.938 0 00.937-.938V16.876H48.75v11.644a.938.938 0 001.875 0V15.938c0-.013-.007-.023-.007-.034a.93.93 0 00-.058-.289c-.008-.02-.013-.041-.021-.062-.009-.02-.007-.023-.012-.035L43.964 2.393a.938.938 0 00-.839-.518H9.375a.937.937 0 00-.84.518L1.974 15.518c-.005.012-.006.024-.012.035-.005.011-.013.041-.021.062a.931.931 0 00-.058.288c0 .012-.007.022-.007.034v37.5a.937.937 0 00.938.938h32.812a.938.938 0 000-1.875zM30 30h-7.5V16.875H30V30zm18.17-15H31.752L30.143 3.75h12.403L48.17 15zM28.25 3.75L29.857 15h-7.214L24.25 3.75h4zm-18.296 0h12.403L20.749 15H4.329L9.954 3.75z"/><path xmlns="http://www.w3.org/2000/svg" fill="var(--color-2)" d="M15.938 43.125h-7.5a.938.938 0 000 1.875h7.5a.938.938 0 000-1.875zM15.938 46.875h-7.5a.938.938 0 000 1.875h7.5a.938.938 0 000-1.875zM15.938 39.375h-7.5a.938.938 0 000 1.875h7.5a.938.938 0 000-1.875zM21.563 39.375h-1.875a.938.938 0 000 1.875h1.875a.938.938 0 000-1.875zM21.563 43.125h-1.875a.938.938 0 000 1.875h1.875a.938.938 0 000-1.875zM21.563 46.875h-1.875a.938.938 0 000 1.875h1.875a.938.938 0 000-1.875zM57.484 33.798l-11.25-3.75a.937.937 0 00-.593 0l-11.25 3.75a.937.937 0 00-.641.89v4.968a19.65 19.65 0 008.767 16.378l2.9 1.934a.937.937 0 001.04 0l2.9-1.934a19.65 19.65 0 008.768-16.378v-4.968a.937.937 0 00-.641-.89zm-1.234 5.858a17.776 17.776 0 01-7.932 14.821l-2.38 1.586-2.38-1.588a17.774 17.774 0 01-7.933-14.819v-4.293l10.313-3.437 10.312 3.437v4.293z"/><path xmlns="http://www.w3.org/2000/svg" fill="var(--color-2)" d="M45.978 52.654a.938.938 0 001.3.26 15.87 15.87 0 006.672-9.592.938.938 0 00-1.826-.43 13.993 13.993 0 01-5.886 8.461.937.937 0 00-.26 1.3zM53.438 40.594a.938.938 0 00.937-.938v-1.328a.937.937 0 10-1.875 0v1.328a.937.937 0 00.938.938z"/>
        </g>
        <g id="trolleybig">
            <path xmlns="http://www.w3.org/2000/svg" fill="var(--color-1)" d="M10.313 43.125A4.688 4.688 0 0015 47.813h38.438a3.75 3.75 0 003.75-3.75v-1.876H10.312v.938z"/><path xmlns="http://www.w3.org/2000/svg" fill="var(--color-1)" d="M39.375 14.063v9.374H33.75v-9.375H19.687v28.126h33.75V14.061H39.376zm10.313 24.374h-9.376v-3.75h9.376v3.75z"/><path xmlns="http://www.w3.org/2000/svg" fill="var(--color-2)" d="M57.188 41.25h-2.813V14.062a.938.938 0 00-.938-.937h-33.75a.938.938 0 00-.937.938V41.25H15V6.562a4.693 4.693 0 00-4.688-4.687h-7.5a.937.937 0 00-.937.938v3.75a.937.937 0 00.938.937h5.624a.937.937 0 01.938.938v34.687A5.63 5.63 0 0015 48.75h2.381a5.624 5.624 0 004.181 9.388 5.626 5.626 0 004.182-9.388h16.012a5.624 5.624 0 004.181 9.388 5.626 5.626 0 004.182-9.388h3.319a4.693 4.693 0 004.687-4.688v-1.874a.938.938 0 00-.938-.938zM38.438 15v7.5h-3.75V15h3.75zm-17.813 0h12.188v8.438a.938.938 0 00.937.937h5.625a.938.938 0 00.938-.938V15H52.5v26.25H20.625V15zM8.437 5.625H3.75V3.75h6.563a2.812 2.812 0 012.812 2.813V41.25H11.25V8.437a2.812 2.812 0 00-2.813-2.812zM25.314 52.5a3.75 3.75 0 11-7.5 0 3.75 3.75 0 017.5 0zm24.375 0a3.75 3.75 0 11-7.5 0 3.75 3.75 0 017.5 0zm6.562-8.438a2.812 2.812 0 01-2.813 2.813H15a3.75 3.75 0 01-3.75-3.75h45v.938z"/><path xmlns="http://www.w3.org/2000/svg" fill="var(--color-2)" d="M29.063 37.5h-5.625a.938.938 0 000 1.875h5.625a.938.938 0 000-1.875zM29.063 34.688h-5.625a.938.938 0 000 1.874h5.625a.938.938 0 000-1.874zM32.813 34.688h-.938a.938.938 0 000 1.874h.938a.938.938 0 000-1.874zM29.063 31.875h-5.625a.938.938 0 000 1.875h5.625a.938.938 0 000-1.875zM32.813 31.875h-.938a.938.938 0 000 1.875h.938a.938.938 0 000-1.875zM32.813 37.5h-.938a.938.938 0 000 1.875h.938a.938.938 0 000-1.875zM49.688 33.75h-9.376a.938.938 0 00-.937.938v3.75a.938.938 0 00.938.937h9.374a.938.938 0 00.938-.938v-3.75a.938.938 0 00-.938-.937zm-.938 3.75h-7.5v-1.875h7.5V37.5zM21.563 54.375a1.875 1.875 0 100-3.75 1.875 1.875 0 000 3.75zM45.938 54.375a1.875 1.875 0 100-3.75 1.875 1.875 0 000 3.75z"/>
        </g>
    </defs>
</svg>
