<svg width="60" height="60" viewBox="0 0 60 60" fill="none" xmlns="http://www.w3.org/2000/svg"><path d="M35.625 11.25H30v8.438h11.25V11.25h-5.625zM24.375 11.25H18.75v8.438H30V11.25h-5.625z" fill="var(--color-1)"/><path d="M30 22.5l5.625 1.607v-4.42h-11.25v4.42L30 22.5zM46.875 27.322v-7.634h-11.25v4.419l11.25 3.215zM24.375 19.688h-11.25v7.634l11.25-3.215v-4.42zM51.756 40.313c-2.72 0-2.72 3.75-5.438 3.75-2.719 0-2.719-3.75-5.437-3.75-2.72 0-2.72 3.75-5.438 3.75-2.719 0-2.719-3.75-5.437-3.75-2.72 0-2.72 3.75-5.438 3.75-2.719 0-2.719-3.75-5.437-3.75-2.72 0-2.72 3.75-5.438 3.75-2.719 0-2.719-3.75-5.444-3.75s-2.718 3.75-5.437 3.75v6.562c2.72 0 2.72-3.75 5.444-3.75 2.724 0 2.718 3.75 5.444 3.75 2.725 0 2.718-3.75 5.437-3.75 2.719 0 2.719 3.75 5.438 3.75 2.718 0 2.718-3.75 5.437-3.75 2.719 0 2.719 3.75 5.438 3.75 2.718 0 2.718-3.75 5.437-3.75 2.719 0 2.719 3.75 5.438 3.75 2.718 0 2.718-3.75 5.437-3.75 2.719 0 2.707 3.75 5.425 3.75v-6.563c-2.718 0-2.718-3.75-5.431-3.75z" fill="var(--color-1)"/><path d="M51.756 46.875c-2.72 0-2.72 3.75-5.438 3.75-2.719 0-2.719-3.75-5.437-3.75-2.72 0-2.72 3.75-5.438 3.75-2.719 0-2.719-3.75-5.437-3.75-2.72 0-2.72 3.75-5.438 3.75-2.719 0-2.719-3.75-5.437-3.75-2.72 0-2.72 3.75-5.438 3.75-2.719 0-2.719-3.75-5.444-3.75s-2.718 3.75-5.437 3.75v6.563c2.72 0 2.72-3.75 5.444-3.75 2.724 0 2.718 3.75 5.444 3.75 2.725 0 2.718-3.75 5.437-3.75 2.719 0 2.719 3.75 5.438 3.75 2.718 0 2.718-3.75 5.437-3.75 2.719 0 2.719 3.75 5.438 3.75 2.718 0 2.718-3.75 5.437-3.75 2.719 0 2.719 3.75 5.438 3.75 2.718 0 2.718-3.75 5.437-3.75 2.719 0 2.707 3.75 5.425 3.75v-6.563c-2.718 0-2.718-3.75-5.431-3.75z" fill="var(--color-1)"/><path d="M57.188 58.125c-1.837 0-2.745-1.254-3.476-2.263-.687-.95-1.118-1.487-1.955-1.487-.838 0-1.27.537-1.959 1.488-.73 1.008-1.639 2.262-3.476 2.262-1.838 0-2.747-1.254-3.477-2.262-.69-.95-1.12-1.488-1.96-1.488-.84 0-1.27.537-1.96 1.488-.73 1.008-1.639 2.262-3.476 2.262-1.838 0-2.747-1.254-3.477-2.262-.69-.95-1.12-1.488-1.96-1.488-.84 0-1.271.537-1.96 1.488-.73 1.008-1.64 2.262-3.478 2.262-1.839 0-2.746-1.254-3.477-2.262-.688-.95-1.118-1.488-1.958-1.488-.84 0-1.271.537-1.96 1.488-.731 1.008-1.64 2.262-3.48 2.262-1.838 0-2.749-1.254-3.48-2.262-.69-.95-1.12-1.488-1.962-1.488-.842 0-1.274.537-1.97 1.489-.725 1.007-1.636 2.261-3.474 2.261a.938.938 0 010-1.875c.843 0 1.273-.537 1.963-1.489.73-1.007 1.641-2.261 3.48-2.261 1.84 0 2.75 1.254 3.48 2.261.69.952 1.126 1.489 1.964 1.489.838 0 1.27-.537 1.96-1.488.731-1.008 1.642-2.262 3.48-2.262 1.837 0 2.746 1.254 3.476 2.262.688.95 1.119 1.488 1.958 1.488s1.271-.537 1.96-1.488c.731-1.008 1.64-2.262 3.478-2.262 1.838 0 2.747 1.254 3.477 2.262.69.95 1.12 1.488 1.96 1.488.84 0 1.27-.537 1.96-1.488.73-1.008 1.639-2.262 3.476-2.262 1.838 0 2.747 1.254 3.477 2.262.69.95 1.12 1.488 1.96 1.488.84 0 1.27-.537 1.957-1.488.73-1.008 1.64-2.262 3.478-2.262 1.837 0 2.744 1.254 3.474 2.262.688.95 1.117 1.488 1.956 1.488a.938.938 0 010 1.875zM57.188 51.563c-1.837 0-2.745-1.255-3.476-2.264-.687-.95-1.118-1.486-1.955-1.486-.838 0-1.27.537-1.959 1.487-.73 1.008-1.639 2.263-3.476 2.263-1.838 0-2.747-1.255-3.477-2.263-.69-.95-1.12-1.487-1.96-1.487-.84 0-1.27.537-1.96 1.487-.73 1.008-1.639 2.263-3.476 2.263-1.838 0-2.747-1.255-3.477-2.263-.69-.95-1.12-1.487-1.96-1.487-.84 0-1.271.537-1.96 1.487-.73 1.008-1.64 2.263-3.478 2.263-1.839 0-2.746-1.255-3.477-2.263-.688-.95-1.118-1.487-1.958-1.487-.84 0-1.271.537-1.96 1.487-.731 1.008-1.64 2.263-3.48 2.263-1.838 0-2.749-1.255-3.48-2.263-.69-.95-1.12-1.487-1.962-1.487-.842 0-1.274.537-1.97 1.488-.725 1.007-1.636 2.261-3.474 2.261a.938.938 0 010-1.874c.843 0 1.273-.538 1.963-1.49.73-1.006 1.641-2.26 3.48-2.26 1.84 0 2.75 1.254 3.48 2.26.69.952 1.126 1.49 1.964 1.49.838 0 1.27-.538 1.96-1.488.731-1.008 1.642-2.263 3.48-2.263 1.837 0 2.746 1.255 3.476 2.263.688.95 1.119 1.487 1.958 1.487s1.271-.537 1.96-1.487c.731-1.008 1.64-2.263 3.478-2.263 1.838 0 2.747 1.255 3.477 2.263.69.95 1.12 1.487 1.96 1.487.84 0 1.27-.537 1.96-1.487.73-1.008 1.639-2.263 3.476-2.263 1.838 0 2.747 1.255 3.477 2.263.69.95 1.12 1.487 1.96 1.487.84 0 1.27-.537 1.957-1.487.73-1.008 1.64-2.263 3.478-2.263 1.837 0 2.744 1.255 3.474 2.263.688.95 1.117 1.487 1.956 1.487a.938.938 0 010 1.876zM57.188 43.125c-.844 0-1.269-.537-1.957-1.488-.73-1.008-1.639-2.262-3.474-2.262-1.836 0-2.747 1.254-3.478 2.262-.688.95-1.118 1.488-1.957 1.488-.84 0-1.27-.537-1.96-1.488l-.075-.102 6.244-13.004a.937.937 0 00-.587-1.308l-2.132-.61v-6.925a.938.938 0 00-.937-.938h-4.688v-7.5a.938.938 0 00-.937-.938h-4.688v-7.5a.938.938 0 00-.937-.937h-11.25a.937.937 0 00-.938.938v7.5H18.75a.938.938 0 00-.938.937v7.5h-4.687a.938.938 0 00-.938.938v6.926l-2.132.61a.94.94 0 00-.587 1.307l6.254 13.023-.061.083c-.69.95-1.12 1.488-1.961 1.488s-1.274-.537-1.963-1.489c-.732-1.007-1.642-2.261-3.48-2.261-1.839 0-2.75 1.254-3.481 2.261-.69.952-1.12 1.489-1.963 1.489a.938.938 0 000 1.875c1.838 0 2.75-1.254 3.48-2.261.69-.952 1.122-1.489 1.964-1.489.841 0 1.273.537 1.962 1.488C10.95 43.746 11.86 45 13.699 45c1.84 0 2.749-1.254 3.48-2.262.689-.95 1.12-1.488 1.96-1.488.84 0 1.27.537 1.959 1.488.73 1.008 1.64 2.262 3.476 2.262s2.748-1.254 3.478-2.262c.689-.95 1.125-1.488 1.96-1.488s1.27.537 1.96 1.488c.73 1.008 1.64 2.262 3.477 2.262s2.747-1.254 3.477-2.262c.689-.95 1.12-1.488 1.96-1.488.84 0 1.27.537 1.959 1.488.73 1.008 1.64 2.262 3.477 2.262s2.746-1.254 3.476-2.262c.688-.95 1.119-1.488 1.959-1.488.84 0 1.268.537 1.955 1.487.73 1.009 1.639 2.263 3.475 2.263a.938.938 0 000-1.875zm-11.25-17.047L36.562 23.4v-2.775h9.376v5.453zm-15.68-4.48a.945.945 0 00-.516 0l-4.43 1.266v-2.239h9.375v2.239l-4.43-1.266zm10.055-2.848h-9.376v-6.563h9.375v6.563zm-15-15h9.375v6.563h-9.376V3.75zm-5.625 8.438h9.375v6.562h-9.375v-6.563zm-5.625 8.437h9.374V23.4l-9.375 2.678v-5.453zm26.822 18.75c-1.837 0-2.747 1.254-3.477 2.262-.689.95-1.12 1.488-1.96 1.488-.84 0-1.27-.537-1.959-1.488-.73-1.008-1.64-2.262-3.477-2.262s-2.747 1.254-3.478 2.262c-.689.95-1.12 1.488-1.96 1.488-.841 0-1.27-.537-1.958-1.488-.73-1.008-1.64-2.262-3.477-2.262a3.298 3.298 0 00-2.055.684L11.64 28.721l17.424-4.978v9.07a.938.938 0 001.875 0v-9.07l17.423 4.978-5.438 11.326a3.293 3.293 0 00-2.038-.672z" fill="var(--color-2)"/><path d="M25.313 28.125a.937.937 0 01-.42-1.776l1.875-.938a.939.939 0 01.838 1.678l-1.875.938a.937.937 0 01-.418.098z" fill="var(--color-2)"/></svg>