<svg width="80" height="80" viewBox="0 0 80 80" fill="none" xmlns="http://www.w3.org/2000/svg">
    <path d="M13.75 75A1.25 1.25 0 0015 76.25h50A1.25 1.25 0 0066.25 75V13.75a2.5 2.5 0 00-2.5-2.5h-12.5v5h10v45l-10 10h-32.5v-55h10v-5h-12.5a2.5 2.5 0 00-2.5 2.5V75z" fill="var(--color-1)"/>path
    <path d="M51.25 71.25l10-10h-10v10zM28.75 18.75h22.5v-7.5h-6.925a5 5 0 10-8.65 0H28.75v7.5zM32.5 46.25h15a2.5 2.5 0 002.5-2.5v-15a2.5 2.5 0 00-2.5-2.5h-5v10L40 35l-2.5 1.25v-10h-5a2.5 2.5 0 00-2.5 2.5v15a2.5 2.5 0 002.5 2.5z" fill="var(--color-1)"/>
    <path d="M63.75 10H46.125a6.25 6.25 0 10-12.25 0H16.25a3.75 3.75 0 00-3.75 3.75V75a2.5 2.5 0 002.5 2.5h50a2.5 2.5 0 002.5-2.5V13.75A3.75 3.75 0 0063.75 10zM60 60h-8.75A1.25 1.25 0 0050 61.25V70H20V17.5h7.5v1.25A1.25 1.25 0 0028.75 20h22.5a1.25 1.25 0 001.25-1.25V17.5H60V60zm-1.767 2.5L52.5 68.233V62.5h5.733zm-22.558-50a1.25 1.25 0 001.083-1.875 3.75 3.75 0 116.484 0 1.25 1.25 0 001.083 1.875H50v5H30v-5h5.675zM65 75H15V13.75a1.25 1.25 0 011.25-1.25H27.5V15h-8.75a1.25 1.25 0 00-1.25 1.25v55a1.25 1.25 0 001.25 1.25h32.5a1.25 1.25 0 00.885-.368l10-10c.233-.234.364-.551.365-.882v-45A1.25 1.25 0 0061.25 15H52.5v-2.5h11.25A1.25 1.25 0 0165 13.75V75z" fill="var(--color-2)"/>
    <path d="M32.5 47.5h15a3.75 3.75 0 003.75-3.75v-15A3.75 3.75 0 0047.5 25h-15a3.75 3.75 0 00-3.75 3.75v15a3.75 3.75 0 003.75 3.75zm8.75-20v6.727l-.691-.346a1.25 1.25 0 00-1.118 0l-.691.346V27.5h2.5zm-10 1.25a1.25 1.25 0 011.25-1.25h3.75v8.75a1.25 1.25 0 001.809 1.119L40 36.398l1.941.97a1.25 1.25 0 001.809-1.118V27.5h3.75a1.25 1.25 0 011.25 1.25v15A1.25 1.25 0 0147.5 45h-15a1.25 1.25 0 01-1.25-1.25v-15zM26.25 55h1.25a1.25 1.25 0 000-2.5h-1.25a1.25 1.25 0 000 2.5zM32.5 52.5a1.25 1.25 0 000 2.5h21.25a1.25 1.25 0 000-2.5H32.5zM26.25 60h6.25a1.25 1.25 0 000-2.5h-6.25a1.25 1.25 0 000 2.5zM47.5 57.5h-10a1.25 1.25 0 000 2.5h10a1.25 1.25 0 000-2.5zM43.75 62.5h-17.5a1.25 1.25 0 000 2.5h17.5a1.25 1.25 0 000-2.5z" fill="var(--color-2)"/></svg>