<svg width="80" height="80" viewBox="0 0 80 80" fill="none" xmlns="http://www.w3.org/2000/svg"><path d="M27.5 8.75a10 10 0 00-10 10c0 5.523 10 17.5 10 17.5s10-11.977 10-17.5a10 10 0 00-10-10zm0 12.5a3.75 3.75 0 110-7.5 3.75 3.75 0 010 7.5zM15.527 67.5H6.25V70a2.5 2.5 0 002.5 2.5h6.777a6.187 6.187 0 010-5zM73.75 67.5h-4.278a6.187 6.187 0 010 5h4.278a2.5 2.5 0 002.5-2.5v-2.5h-2.5zM58.027 67.5H26.972a6.187 6.187 0 010 5h31.055a6.187 6.187 0 010-5zM58.028 67.5a6.241 6.241 0 0111.444 0h4.278V56.25h-12.5a2.5 2.5 0 01-2.5-2.5V42.5h-5v25h4.278z" fill="var(--color-1)"/><path d="M46.25 25H32.5v21.25l-5-3.75-5 3.75V25H8.75a2.5 2.5 0 00-2.5 2.5V60h42.5V27.5a2.5 2.5 0 00-2.5-2.5z" fill="var(--color-1)"/><path d="M76.25 66.25H75V52.5a11.263 11.263 0 00-11.25-11.25h-10a1.25 1.25 0 00-1.25 1.25v16.25H50V27.5a3.75 3.75 0 00-3.75-3.75h-8.903a12.833 12.833 0 001.403-5 11.25 11.25 0 00-22.5 0c.122 1.745.6 3.446 1.402 5H8.75A3.75 3.75 0 005 27.5v31.25H3.75A1.25 1.25 0 002.5 60v7.5a1.25 1.25 0 001.25 1.25H5V70a3.75 3.75 0 003.75 3.75h6.015a7.483 7.483 0 0012.97 0h29.53a7.483 7.483 0 0012.97 0h3.515A3.75 3.75 0 0077.5 70v-2.5a1.25 1.25 0 00-1.25-1.25zM72.5 52.5V55H61.25A1.25 1.25 0 0160 53.75v-10h3.75a8.76 8.76 0 018.75 8.75zM55 43.75h2.5v10a3.75 3.75 0 003.75 3.75H72.5v8.75h-2.265a7.483 7.483 0 00-12.97 0H55v-22.5zM27.5 10a8.76 8.76 0 018.75 8.75c0 3.727-5.639 11.6-8.75 15.517-3.111-3.917-8.75-11.79-8.75-15.517A8.76 8.76 0 0127.5 10zm-20 17.5a1.25 1.25 0 011.25-1.25h10.195a82.176 82.176 0 007.595 10.801 1.251 1.251 0 001.92 0 82.176 82.176 0 007.595-10.801H46.25a1.25 1.25 0 011.25 1.25v31.25h-40V27.5zM5 61.25h47.5v5H27.735a7.483 7.483 0 00-12.97 0H5v-5zm3.75 10A1.25 1.25 0 017.5 70v-1.25h6.363a7 7 0 000 2.5H8.75zM21.25 75a5 5 0 110-10 5 5 0 010 10zm7.387-3.75a7 7 0 000-2.5h27.725a7 7 0 000 2.5H28.637zM63.75 75a5 5 0 110-10 5 5 0 010 10zM75 70a1.25 1.25 0 01-1.25 1.25h-2.612a7 7 0 000-2.5H75V70z" fill="var(--color-2)"/><path d="M21.941 47.375a1.25 1.25 0 001.309-.125l4.25-3.188 4.25 3.188a1.25 1.25 0 002-1v-10a1.25 1.25 0 00-2.5 0v7.5l-3-2.25a1.25 1.25 0 00-1.5 0l-3 2.25v-7.5a1.25 1.25 0 00-2.5 0v10a1.25 1.25 0 00.691 1.125zM32.5 17.5a5 5 0 10-10 0 5 5 0 0010 0zm-7.5 0a2.5 2.5 0 115 0 2.5 2.5 0 01-5 0zM43.75 53.75h-32.5a1.25 1.25 0 000 2.5h32.5a1.25 1.25 0 000-2.5z" fill="var(--color-2)"/></svg>