<svg width="14" height="11" viewBox="0 0 14 11" fill="none" xmlns="http://www.w3.org/2000/svg"><path d="M14 3.547c-.234.258-.5.484-.781.68a149.678 149.678 0 00-3.89 2.695C8.671 7.406 7.858 8 7.007 8h-.016c-.851 0-1.664-.594-2.32-1.078-1.274-.93-2.586-1.813-3.883-2.695A4.369 4.369 0 010 3.547V9.75C0 10.438.563 11 1.25 11h11.5c.688 0 1.25-.563 1.25-1.25V3.547zm0-2.297C14 .562 13.43 0 12.75 0H1.25C.414 0 0 .656 0 1.422c0 .71.79 1.594 1.344 1.969 1.21.843 2.437 1.687 3.648 2.539C5.5 6.28 6.36 7 6.992 7h.016c.633 0 1.492-.719 2-1.07 1.21-.852 2.437-1.696 3.656-2.54C13.352 2.915 14 2.126 14 1.25z" fill="#fff"/></svg>