<svg width="60" height="60" viewBox="0 0 60 60" fill="none" xmlns="http://www.w3.org/2000/svg"><path d="M30 23.438l-10.1-3.831-.212.08v15.854l-6.563-2.513V17.036L2.812 13.125v33.75L30 57.319l27.188-10.35V13.125L30 23.438z" fill="var(--color-1)"/><path d="M2.813 13.125l10.312 3.911v-.161l13.762-5.222 6.994 2.653-13.98 5.3L30 23.438l27.188-10.312L30 2.812 2.812 13.126z" fill="var(--color-1)"/><path d="M57.52 12.248L30.331 1.936a.931.931 0 00-.664 0L2.481 12.248a.938.938 0 00-.606.877v33.75a.937.937 0 00.602.876l27.187 10.443a.938.938 0 00.669 0l27.187-10.35a.938.938 0 00.605-.875V13.125a.937.937 0 00-.606-.877zM30 3.815l24.545 9.31L30 22.435l-7.456-2.828 11.67-4.42a.938.938 0 000-1.753l-6.995-2.653a.938.938 0 00-.664 0l-13.643 5.172-7.457-2.828L30 3.815zm-15.938 14.58l4.688 1.78v14.003l-4.688-1.795V18.395zm1.493-1.44l11.332-4.299 4.35 1.65L19.9 18.604l-4.345-1.648zM3.75 14.484l8.438 3.201v15.344a.938.938 0 00.602.876l6.563 2.512a.937.937 0 001.272-.875V20.884l8.438 3.2v31.87L3.75 46.23V14.483zm27.188 41.475V24.083l25.312-9.6v31.84l-25.313 9.635z" fill="var(--color-2)"/><path d="M39.978 46.893l-5.638 2.146a.937.937 0 10.666 1.752l5.638-2.146a.936.936 0 00-.302-1.82.938.938 0 00-.364.068zM45.597 44.754l-1.887.718a.938.938 0 10.667 1.752l1.887-.718a.938.938 0 10-.667-1.752zM39.978 43.143l-5.638 2.146a.937.937 0 10.666 1.752l5.638-2.146a.936.936 0 00-.302-1.82.938.938 0 00-.364.068zM45.597 41.004l-1.887.718a.938.938 0 10.667 1.752l1.887-.718a.938.938 0 10-.667-1.752zM39.978 39.393l-5.638 2.146a.937.937 0 10.666 1.752l5.638-2.146a.936.936 0 00-.302-1.82.938.938 0 00-.364.068zM45.597 37.254l-1.887.718a.938.938 0 10.667 1.752l1.887-.718a.938.938 0 10-.667-1.752z" fill="var(--color-2)"/></svg>