<svg width="60" height="60" viewBox="0 0 60 60" fill="none" xmlns="http://www.w3.org/2000/svg"><path d="M15 53.438h42.188v-5.626H2.812v5.626H15z" fill="var(--color-1)"/><path d="M15 53.438H7.5v3.75H15v-3.75zM52.5 53.438H45v3.75h7.5v-3.75z" fill="#FFF0D9"/><path d="M20.625 23.438v5.625H15v-5.625H5.625v20.625H30V23.436h-9.375zM45 23.438v5.625h-5.625v-5.625H30v20.625h24.375V23.436H45z" fill="var(--color-1)"/><path d="M32.813 2.813v5.624h-5.626V2.814h-9.375v20.625h24.376V2.813h-9.376z" fill="var(--color-1)"/><path d="M57.188 46.875H2.812a.938.938 0 00-.937.938v5.624a.937.937 0 00.938.938h3.75v2.813a.937.937 0 00.937.937H15a.938.938 0 00.938-.938v-2.812h28.124v2.813a.938.938 0 00.938.937h7.5a.938.938 0 00.938-.938v-2.812h3.75a.938.938 0 00.937-.938v-5.624a.938.938 0 00-.938-.938zM14.062 56.25H8.439v-1.875h5.624v1.875zm37.5 0h-5.624v-1.875h5.624v1.875zm4.688-3.75H3.75v-3.75h52.5v3.75zM5.625 45h48.75a.938.938 0 00.938-.938V23.439a.938.938 0 00-.938-.938h-11.25V2.812a.938.938 0 00-.938-.937H17.814a.937.937 0 00-.938.938V22.5H5.625a.938.938 0 00-.938.938v20.625a.937.937 0 00.938.937zm47.813-1.875h-22.5v-18.75h7.5v4.688a.938.938 0 00.937.937H45a.938.938 0 00.938-.938v-4.687h7.5v18.75zm-9.376-15h-3.75v-3.75h3.75v3.75zM31.876 3.75V7.5h-3.75V3.75h3.75zm-13.125 0h7.5v4.688a.938.938 0 00.938.937h5.625a.937.937 0 00.937-.938V3.75h7.5V22.5h-22.5V3.75zm.938 20.625v3.75h-3.75v-3.75h3.75zm-13.125 0h7.5v4.688A.938.938 0 0015 30h5.625a.938.938 0 00.938-.938v-4.687h7.5v18.75h-22.5v-18.75z" fill="var(--color-2)"/><path d="M13.125 39.375h-3.75a.938.938 0 000 1.875h3.75a.938.938 0 000-1.875zM13.125 36.563h-3.75a.938.938 0 000 1.874h3.75a.938.938 0 000-1.874zM16.875 36.563h-.938a.938.938 0 000 1.874h.938a.938.938 0 000-1.874zM16.875 39.375h-.938a.938.938 0 000 1.875h.938a.938.938 0 000-1.875zM21.563 20.625h3.75a.938.938 0 000-1.875h-3.75a.938.938 0 000 1.875zM21.563 17.813h3.75a.938.938 0 000-1.875h-3.75a.938.938 0 000 1.874zM28.125 17.813h.938a.938.938 0 000-1.875h-.938a.938.938 0 000 1.874zM28.125 20.625h.938a.938.938 0 000-1.875h-.938a.938.938 0 000 1.875zM37.5 39.375h-3.75a.938.938 0 000 1.875h3.75a.938.938 0 000-1.875zM37.5 36.563h-3.75a.938.938 0 000 1.874h3.75a.938.938 0 000-1.874zM41.25 36.563h-.938a.938.938 0 000 1.874h.938a.938.938 0 000-1.874zM41.25 39.375h-.938a.938.938 0 000 1.875h.938a.938.938 0 000-1.875z" fill="var(--color-2)"/></svg>