<svg width="60" height="60" viewBox="0 0 60 60" fill="none" xmlns="http://www.w3.org/2000/svg"><path d="M30 15.938l-5.625-2.461v6.21l-3.75-1.875v-5.976L15 9.375v18.75l15 7.631 15-7.537V9.375l-15 6.563zM15.938 51.563H2.811v5.624h13.126v-5.624zM46.875 51.563h-2.813v5.624h13.126v-5.624H46.874z" fill="var(--color-1)"/><path d="M20.625 11.597l6.694-2.925 4.022 1.753-6.966 3.047v.005L30 15.937l15-6.562-15-6.563-15 6.563 5.625 2.46v-.238z" fill="var(--color-1)"/><path d="M15.938 50.625H14.87a6.545 6.545 0 001.066-3.578v-2.358a4.67 4.67 0 00-.254-1.524l-2.9-8.43a2.818 2.818 0 00-1.908-1.97l1.767-6.602a2.781 2.781 0 00-1.115-3.04 2.623 2.623 0 00-.844-.4 2.653 2.653 0 00-.75-.105 2.78 2.78 0 00-2.706 2.038L2.225 40.031a4.732 4.732 0 00-.128 2.42l1.446 5.617c.137.533.207 1.081.207 1.632v.925h-.938a.938.938 0 00-.937.937v5.625a.937.937 0 00.938.938h13.124a.938.938 0 00.938-.938v-5.625a.938.938 0 00-.938-.937zm-10.58-3.028l-1.434-5.568a2.813 2.813 0 01.084-1.422L9.026 25.18a.926.926 0 011.145-.65.829.829 0 01.287.136.921.921 0 01.375 1.012l-1.936 7.227a2.786 2.786 0 00-1.64 2.55 2.58 2.58 0 00.093.729l1.697 6.339a.937.937 0 001.811-.486l-1.7-6.36a.91.91 0 01.594-1.093c.022-.008.111-.038.125-.041a.95.95 0 011.114.739l2.919 8.492c.101.294.153.603.152.914v2.358c.001.925-.273 1.83-.787 2.6l-.652.978H5.625V49.7c0-.71-.09-1.416-.266-2.103zM15 56.25H3.75V52.5H15v3.75zM43.125 51.563v5.624a.938.938 0 00.938.938h13.124a.937.937 0 00.938-.938v-5.624a.938.938 0 00-.938-.938h-.937V49.7c0-.552.07-1.102.207-1.636l1.446-5.618a4.732 4.732 0 00-.128-2.42l-5.002-15.37a2.78 2.78 0 00-2.701-2.034 2.653 2.653 0 00-.75.104 2.625 2.625 0 00-.844.401 2.78 2.78 0 00-1.116 3.04l1.763 6.602a2.818 2.818 0 00-1.909 1.97l-2.9 8.43a4.67 4.67 0 00-.254 1.52v2.358c.001 1.27.372 2.514 1.067 3.578h-1.066a.938.938 0 00-.938.938zm11.25-1.863v.925h-6.998l-.652-.978a4.675 4.675 0 01-.788-2.6v-2.358c0-.311.052-.62.153-.913l2.919-8.493a.95.95 0 011.114-.739c.014 0 .103.033.124.04a.91.91 0 01.595 1.093l-1.704 6.361a.938.938 0 001.811.486l1.697-6.34a2.58 2.58 0 00.094-.728 2.786 2.786 0 00-1.637-2.55l-1.935-7.228a.922.922 0 01.375-1.011.925.925 0 011.432.514l5.018 15.425c.15.459.178.949.084 1.422l-1.435 5.568a8.469 8.469 0 00-.267 2.104zM45 52.5h11.25v3.75H45V52.5zM45.375 8.516l-15-6.562a.937.937 0 00-.75 0l-15 6.562a.937.937 0 00-.563.859v18.75a.938.938 0 00.512.835l15 7.632a.938.938 0 00.847.002l15-7.537a.937.937 0 00.517-.838V9.375a.938.938 0 00-.563-.859zM30 3.836l12.66 5.539L30 14.915l-3.29-1.44 5.007-2.191a.938.938 0 000-1.718l-4.023-1.754a.938.938 0 00-.75 0l-6.592 2.881-3.008-1.318L30 3.835zm-8.438 9.433l1.875.82v4.082l-1.875-.938V13.27zm1.125-1.552l4.628-2.022 1.678.732-4.618 2.024-1.688-.734zm-6.75-.909l3.75 1.641v5.364a.937.937 0 00.519.839l3.75 1.875a.939.939 0 001.357-.84v-4.78l3.75 1.64v17.68L15.938 27.55V10.808zm15 23.428V16.55l13.125-5.743V27.64l-13.124 6.596z" fill="var(--color-2)"/><path d="M36.148 27.406l-3.757 1.888a.937.937 0 10.844 1.676l3.757-1.889a.938.938 0 00-.844-1.675zM32.813 27.319c.145 0 .29-.034.42-.1l3.703-1.86a.938.938 0 00-.844-1.676l-3.702 1.86a.938.938 0 00.422 1.776z" fill="var(--color-2)"/></svg>