<svg width="60" height="60" viewBox="0 0 60 60" fill="none" xmlns="http://www.w3.org/2000/svg"><path d="M49.688 15.938L43.124 2.812H29.062l1.875 13.126h18.75zM23.438 2.813H9.374L2.812 15.937h18.75l1.875-13.124zM30.938 15.938v15h-9.375v-15H2.813v37.5H40.74a18.744 18.744 0 01-6.053-13.782v-4.968l11.25-3.75 3.75 1.25v-16.25h-18.75z" fill="var(--color-1)"/><path d="M35.625 52.5H3.75V16.875h16.875v14.063a.938.938 0 00.938.937h9.375a.938.938 0 00.937-.938V16.876H48.75v11.644a.938.938 0 001.875 0V15.938c0-.013-.007-.023-.007-.034a.93.93 0 00-.058-.289c-.008-.02-.013-.041-.021-.062-.009-.02-.007-.023-.012-.035L43.964 2.393a.938.938 0 00-.839-.518H9.375a.937.937 0 00-.84.518L1.974 15.518c-.005.012-.006.024-.012.035-.005.011-.013.041-.021.062a.931.931 0 00-.058.288c0 .012-.007.022-.007.034v37.5a.937.937 0 00.938.938h32.812a.938.938 0 000-1.875zM30 30h-7.5V16.875H30V30zm18.17-15H31.752L30.143 3.75h12.403L48.17 15zM28.25 3.75L29.857 15h-7.214L24.25 3.75h4zm-18.296 0h12.403L20.749 15H4.329L9.954 3.75z" fill="var(--color-2)"/><path d="M15.938 43.125h-7.5a.938.938 0 000 1.875h7.5a.938.938 0 000-1.875zM15.938 46.875h-7.5a.938.938 0 000 1.875h7.5a.938.938 0 000-1.875zM15.938 39.375h-7.5a.938.938 0 000 1.875h7.5a.938.938 0 000-1.875zM21.563 39.375h-1.875a.938.938 0 000 1.875h1.875a.938.938 0 000-1.875zM21.563 43.125h-1.875a.938.938 0 000 1.875h1.875a.938.938 0 000-1.875zM21.563 46.875h-1.875a.938.938 0 000 1.875h1.875a.938.938 0 000-1.875zM57.484 33.798l-11.25-3.75a.937.937 0 00-.593 0l-11.25 3.75a.937.937 0 00-.641.89v4.968a19.65 19.65 0 008.767 16.378l2.9 1.934a.937.937 0 001.04 0l2.9-1.934a19.65 19.65 0 008.768-16.378v-4.968a.937.937 0 00-.641-.89zm-1.234 5.858a17.776 17.776 0 01-7.932 14.821l-2.38 1.586-2.38-1.588a17.774 17.774 0 01-7.933-14.819v-4.293l10.313-3.437 10.312 3.437v4.293z" fill="var(--color-2)"/><path d="M45.978 52.654a.938.938 0 001.3.26 15.87 15.87 0 006.672-9.592.938.938 0 00-1.826-.43 13.993 13.993 0 01-5.886 8.461.937.937 0 00-.26 1.3zM53.438 40.594a.938.938 0 00.937-.938v-1.328a.937.937 0 10-1.875 0v1.328a.937.937 0 00.938.938z" fill="var(--color-2)"/></svg>