<svg width="80" height="80" viewBox="0 0 80 80" fill="none" xmlns="http://www.w3.org/2000/svg"><path d="M29.305 11.805a27.5 27.5 0 1038.89 38.892 27.5 27.5 0 00-38.89-38.892zM64.66 47.16a22.5 22.5 0 110-31.82 22.526 22.526 0 010 31.82zM14.42 74.42l14-14-1.768-1.77-5.302-5.303-1.769-1.768-14 14a6.25 6.25 0 008.84 8.84l-.001.001z" fill="var(--color-1)"/><path d="M56.25 21.25h-5v10L48.75 30l-2.5 1.25v-10h-5a2.5 2.5 0 00-2.5 2.5v15a2.5 2.5 0 002.5 2.5h15a2.5 2.5 0 002.5-2.5v-15a2.5 2.5 0 00-2.5-2.5z" fill="var(--color-1)"/><path d="M61.125 44.875a1.25 1.25 0 01-.884-2.134c.338-.333.657-.682.959-1.046a1.249 1.249 0 012.067.23 1.251 1.251 0 01-.153 1.38c-.348.413-.716.814-1.105 1.204a1.25 1.25 0 01-.884.366zM64.561 40a1.25 1.25 0 01-1.125-1.785 16.3 16.3 0 00-3.191-18.455 1.25 1.25 0 111.767-1.767 18.804 18.804 0 013.684 21.292 1.25 1.25 0 01-1.135.715z" fill="var(--color-2)"/><path d="M69.079 10.921a28.738 28.738 0 00-43.875 36.8L21.35 51.58l-.884-.884a1.25 1.25 0 00-1.768 0l-14 14a7.5 7.5 0 1010.607 10.608l14-14a1.25 1.25 0 000-1.769l-.884-.884 3.859-3.857a28.74 28.74 0 0036.8-43.875l-.001.002zM13.536 73.536a5.001 5.001 0 01-7.072-7.072l13.125-13.117 7.07 7.07-13.123 13.12zm13.117-16.654l-3.535-3.535 3.625-3.625c.535.636 1.087 1.26 1.682 1.854a29.708 29.708 0 001.854 1.683l-3.627 3.623zm40.658-7.07a26.251 26.251 0 11-37.124-37.125A26.251 26.251 0 0167.31 49.81z" fill="var(--color-2)"/><path d="M65.544 14.456a23.74 23.74 0 100 33.588 23.778 23.778 0 000-33.588zm-1.768 31.82a21.25 21.25 0 110-30.052 21.275 21.275 0 010 30.052z" fill="var(--color-2)"/><path d="M56.25 20h-15a3.75 3.75 0 00-3.75 3.75v15a3.75 3.75 0 003.75 3.75h15A3.75 3.75 0 0060 38.75v-15A3.75 3.75 0 0056.25 20zM50 22.5v6.727l-.691-.346a1.25 1.25 0 00-1.118 0l-.691.346V22.5H50zm7.5 16.25A1.25 1.25 0 0156.25 40h-15A1.25 1.25 0 0140 38.75v-15a1.25 1.25 0 011.25-1.25H45v8.75a1.25 1.25 0 001.809 1.119l1.941-.971 1.941.97A1.25 1.25 0 0052.5 31.25V22.5h3.75a1.25 1.25 0 011.25 1.25v15z" fill="var(--color-2)"/></svg>