<svg width="80" height="80" viewBox="0 0 80 80" xmlns="http://www.w3.org/2000/svg"><path fill="none" d="M-1-1h582v402H-1z"/><g><path fill="var(--color-1)" d="M73.75 3.75h-20v30l-7.5-5-7.5 5v-30h-20a2.5 2.5 0 00-2.5 2.5v35h42.5a2.5 2.5 0 012.5 2.5v20h12.5a2.5 2.5 0 002.5-2.5v-55a2.5 2.5 0 00-2.5-2.5z"/><path fill="var(--color-1)" d="M58.75 41.25H6.25a2.5 2.5 0 00-2.5 2.5v30a2.5 2.5 0 002.5 2.5h52.5a2.5 2.5 0 002.5-2.5v-30a2.5 2.5 0 00-2.5-2.5zm-2.5 25a5 5 0 00-5 5h-37.5a5 5 0 00-5-5v-15a5 5 0 005-5h37.5a5 5 0 005 5v15z"/><path fill="var(--color-1)" d="M32.5 68.75c5.523 0 10-4.477 10-10s-4.477-10-10-10-10 4.477-10 10 4.477 10 10 10z"/><path fill="var(--color-2)" d="M73.75 2.5h-55A3.75 3.75 0 0015 6.25V40H6.25a3.75 3.75 0 00-3.75 3.75v30a3.75 3.75 0 003.75 3.75h52.5a3.75 3.75 0 003.75-3.75V65h11.25a3.75 3.75 0 003.75-3.75v-55a3.75 3.75 0 00-3.75-3.75zM52.5 5v26.414l-5.556-3.704a1.25 1.25 0 00-1.388 0L40 31.414V5h12.5zM60 73.75A1.25 1.25 0 0158.75 75H6.25A1.25 1.25 0 015 73.75v-30a1.25 1.25 0 011.25-1.25h52.5A1.25 1.25 0 0160 43.75v30zm15-12.5a1.25 1.25 0 01-1.25 1.25H62.5V43.75A3.75 3.75 0 0058.75 40H17.5V6.25A1.25 1.25 0 0118.75 5H37.5v28.75a1.25 1.25 0 001.944 1.04l6.806-4.54 6.806 4.538A1.25 1.25 0 0055 33.75V5h18.75A1.25 1.25 0 0175 6.25v55z"/><path fill="var(--color-2)" d="M56.25 50a3.75 3.75 0 01-3.75-3.75A1.25 1.25 0 0051.25 45h-37.5a1.25 1.25 0 00-1.25 1.25A3.75 3.75 0 018.75 50a1.25 1.25 0 00-1.25 1.25v15a1.25 1.25 0 001.25 1.25 3.75 3.75 0 013.75 3.75 1.25 1.25 0 001.25 1.25h37.5a1.25 1.25 0 001.25-1.25 3.75 3.75 0 013.75-3.75 1.25 1.25 0 001.25-1.25v-15A1.25 1.25 0 0056.25 50zM55 65.125A6.266 6.266 0 0050.125 70h-35.25A6.266 6.266 0 0010 65.125v-12.75a6.266 6.266 0 004.875-4.875h35.25A6.266 6.266 0 0055 52.375v12.75z"/><path fill="var(--color-2)" d="M33.75 66.25v-1.48a3.741 3.741 0 00-1.25-7.27 1.25 1.25 0 111.25-1.25 1.25 1.25 0 002.5 0 3.75 3.75 0 00-2.5-3.52v-1.48a1.25 1.25 0 00-2.5 0v1.48A3.741 3.741 0 0032.5 60a1.25 1.25 0 11-1.25 1.25 1.25 1.25 0 00-2.5 0 3.75 3.75 0 002.5 3.52v1.48a1.25 1.25 0 002.5 0z"/><path fill="var(--color-2)" d="M43.75 58.75A11.25 11.25 0 1032.5 70a11.263 11.263 0 0011.25-11.25zM32.5 67.5a8.75 8.75 0 118.75-8.75 8.76 8.76 0 01-8.75 8.75zm17.5-10h-2.5a1.25 1.25 0 000 2.5H50a1.25 1.25 0 000-2.5zm-32.5 0H15a1.25 1.25 0 000 2.5h2.5a1.25 1.25 0 000-2.5z"/></g></svg>