<svg width="60" height="60" viewBox="0 0 60 60" fill="none" xmlns="http://www.w3.org/2000/svg"><path d="M15 38.438v5.624h-3.75v-5.624H4.687v18.75h16.875v-18.75H15zM31.875 38.438v5.624h-3.75v-5.624h-6.563v18.75h16.875v-18.75h-6.562zM48.75 38.438v5.624H45v-5.624h-6.563v18.75h16.876v-18.75H48.75zM23.438 19.688v5.625h-3.75v-5.625h-6.563v18.75H30v-18.75h-6.563zM40.313 19.688v5.625h-3.75v-5.625H30v18.75h16.875v-18.75h-6.563z" fill="var(--color-1)"/><path d="M31.875 2.813v3.75h-3.75v-3.75h-6.563v16.875H38.438V2.813h-6.562z" fill="var(--color-1)"/><path d="M9.375 53.438H7.5a.938.938 0 000 1.874h1.875a.938.938 0 000-1.874zM9.375 50.625H7.5a.938.938 0 000 1.875h1.875a.938.938 0 000-1.875zM26.25 53.438h-1.875a.938.938 0 000 1.874h1.875a.938.938 0 000-1.874zM26.25 50.625h-1.875a.938.938 0 000 1.875h1.875a.938.938 0 000-1.875zM43.125 53.438H41.25a.938.938 0 000 1.874h1.875a.938.938 0 000-1.874zM43.125 50.625H41.25a.938.938 0 000 1.875h1.875a.938.938 0 000-1.875z" fill="var(--color-2)"/><path d="M55.313 37.5h-7.5V19.687a.938.938 0 00-.938-.937h-7.5V2.812a.938.938 0 00-.938-.937H21.564a.937.937 0 00-.938.938V18.75h-7.5a.938.938 0 00-.938.938V37.5h-7.5a.938.938 0 00-.937.938v18.75a.937.937 0 00.938.937h50.624a.938.938 0 00.938-.938v-18.75a.938.938 0 00-.938-.937zm-9.376 1.875h1.876v3.75h-1.876v-3.75zm0-1.875h-15V20.625h4.688v4.688a.938.938 0 00.938.937h3.75a.938.938 0 00.937-.938v-4.687h4.688V37.5zm-16.874 1.875h1.875v3.75h-1.875v-3.75zm10.312-18.75v3.75H37.5v-3.75h1.875zM30.937 3.75v1.875h-1.875V3.75h1.875zm-8.437 0h4.688v2.813a.938.938 0 00.937.937h3.75a.937.937 0 00.938-.938V3.75H37.5v15h-15v-15zm0 16.875v3.75h-1.875v-3.75H22.5zm-8.438 0h4.688v4.688a.938.938 0 00.938.937h3.75a.938.938 0 00.937-.938v-4.687h4.688V37.5h-15V20.625zm0 18.75v3.75h-1.874v-3.75h1.874zm-8.437 0h4.688v4.688a.938.938 0 00.937.937H15a.938.938 0 00.938-.938v-4.687h4.687V56.25h-15V39.375zm16.875 0h4.688v4.688a.938.938 0 00.937.937h3.75a.938.938 0 00.938-.938v-4.687H37.5V56.25h-15V39.375zM54.375 56.25h-15V39.375h4.688v4.688A.938.938 0 0045 45h3.75a.938.938 0 00.938-.938v-4.687h4.687V56.25z" fill="var(--color-2)"/><path d="M15.938 36.563h1.874a.938.938 0 000-1.876h-1.875a.938.938 0 000 1.876zM15.938 33.75h1.874a.938.938 0 000-1.875h-1.875a.938.938 0 000 1.875zM34.688 34.688h-1.876a.938.938 0 000 1.874h1.876a.938.938 0 000-1.874zM34.688 31.875h-1.876a.938.938 0 000 1.875h1.876a.938.938 0 000-1.875zM24.375 15h1.875a.938.938 0 000-1.875h-1.875a.938.938 0 000 1.875zM24.375 17.813h1.875a.938.938 0 000-1.875h-1.875a.938.938 0 000 1.874z" fill="var(--color-2)"/></svg>