<svg width="11" height="11" viewBox="0 0 11 11" fill="none" xmlns="http://www.w3.org/2000/svg"><path d="M11 8.688c0-.055 0-.11-.023-.165-.055-.164-.438-.335-.594-.414-.445-.25-.899-.492-1.336-.75C8.844 7.234 8.594 7 8.352 7 7.875 7 7.18 8.414 6.758 8.414c-.211 0-.485-.195-.672-.305C4.664 7.32 3.68 6.336 2.89 4.914c-.11-.187-.305-.46-.305-.672C2.586 3.82 4 3.125 4 2.648c0-.242-.234-.492-.36-.695-.257-.437-.5-.89-.75-1.336-.078-.156-.25-.539-.413-.594C2.422 0 2.367 0 2.313 0c-.282 0-.829.125-1.086.242-.383.164-.633.602-.829.953-.25.461-.398.93-.398 1.453 0 .727.297 1.383.54 2.047.17.477.382.938.647 1.367.82 1.329 2.422 2.93 3.75 3.75a7.3 7.3 0 001.368.649c.664.242 1.32.539 2.047.539.523 0 .992-.148 1.453-.398.351-.196.789-.446.953-.829.117-.257.242-.804.242-1.085z" fill="#fff"/></svg>