<svg width="60" height="60" viewBox="0 0 60 60" fill="none" xmlns="http://www.w3.org/2000/svg"><path d="M35.907 33.993l3.136-.553-3.136.553z" fill="#B1D5FF"/><path d="M32.741 51.686a4.688 4.688 0 10-9.233 1.628 4.688 4.688 0 009.233-1.628zm-4.29 2.66a1.875 1.875 0 11-.65-3.692 1.875 1.875 0 01.65 3.693zM4.725 6.172a1.875 1.875 0 10.65 3.693l5.54-.977-.321-1.847-.325-1.845-5.544.976z" fill="#FFF0D9"/><path d="M51.046 31.323l-8.31 1.465.652 3.693-3.693.651-.652-3.692-3.136.553-3.326.586-1.847.326 2.605 14.771 20.311-3.581-2.604-14.772z" fill="var(--color-1)"/><path d="M39.043 33.44l3.694-.652-3.694.652z" fill="#B1D5FF"/><path d="M46.92 18.723l-6.462 1.14.65 3.693-3.692.651-.652-3.694-6.462 1.14L32.58 34.58l3.326-.586 3.136-.553 3.694-.652 6.462-1.139-2.28-12.926z" fill="var(--color-1)"/><path d="M35.907 33.993l-3.326.586 3.326-.586zM39.043 33.44l3.694-.652-3.694.652zM40.458 19.863l-1.847.325 1.847-.325z" fill="#B1D5FF"/><path d="M42.522 9.979l-3.692.651.488 2.77-3.693.651-.488-2.77-3.693.651 1.627 9.233 11.08-1.954-1.629-9.232z" fill="var(--color-1)"/><path d="M35.137 11.28l1.847-.324-1.847.325z" fill="#B1D5FF"/><path d="M30.894 52.012a2.813 2.813 0 10-5.54.976 2.813 2.813 0 005.54-.976zm-2.605 1.41a.937.937 0 01-.328-1.844.937.937 0 01.328 1.845zM35.131 44.587c.055 0 .11-.005.163-.015l3.694-.65a.938.938 0 00-.326-1.847l-3.693.65a.937.937 0 00.162 1.862zM35.457 45.495a.938.938 0 10.326 1.846l3.693-.65a.937.937 0 00-.325-1.846l-3.694.65zM34.373 29.488c.055 0 .11-.005.163-.015l1.846-.324a.936.936 0 10-.324-1.846l-1.847.325a.938.938 0 00.162 1.86zM34.7 30.398a.938.938 0 00.325 1.846l1.847-.326a.936.936 0 10-.326-1.846l-1.846.326z" fill="var(--color-2)"/><path d="M58.267 45.281a.937.937 0 00-1.086-.761l-2.77.488-2.438-13.85a.937.937 0 00-1.086-.759l-.924.163-2.12-12a.938.938 0 00-1.086-.76l-1.846.326-1.465-8.31a.937.937 0 00-1.086-.76L31.28 11.01a.937.937 0 00-.759 1.086l1.465 8.31-1.848.325a.938.938 0 00-.76 1.087l2.117 12-.924.163a.938.938 0 00-.76 1.085l2.39 13.557a5.581 5.581 0 00-2.156-1.407l-5.5-31.21a4.687 4.687 0 00-4.49-3.872l-.504-2.863a4.687 4.687 0 00-5.43-3.802l-2.77.489-.164-.924a.937.937 0 00-1.086-.76l-5.538.977a2.813 2.813 0 10.976 5.539l5.54-.977a.937.937 0 00.76-1.086l-.163-.923 2.77-.49a2.82 2.82 0 013.259 2.281l.65 3.694 6.159 34.926a5.614 5.614 0 002.766 9.85 5.615 5.615 0 006.127-3.64l21.062-3.713a4.693 4.693 0 003.798-5.43zM40.023 22.794l-1.846.327-.326-1.846 1.846-.326.326 1.845zm-1.79-10.155l-1.848.326-.163-.923 1.847-.326.163.923zm-5.704.054l1.847-.325.327 1.845a.938.938 0 00.921.775c.054 0 3.857-.666 3.857-.666a.937.937 0 00.76-1.085l-.326-1.846 1.847-.326 1.303 7.386-9.232 1.628-1.304-7.386zm3.476 8.906l.488 2.77a.938.938 0 00.922.774c.054 0 3.857-.666 3.857-.666a.938.938 0 00.76-1.085l-.489-2.767 4.616-.814 1.954 11.079-14.772 2.603-1.954-11.08 4.618-.814zM5.213 8.942a.95.95 0 01-.7-.156.937.937 0 01.374-1.687l4.617-.818.164.924.162.921-4.617.816zm33.07 25.583l.488 2.77a.938.938 0 00.924.775c.053 0 3.856-.666 3.856-.666a.937.937 0 00.76-1.086l-.489-2.77 2.568-.452 2.972-.524.923-.164 2.279 12.926-18.469 3.257-2.275-12.926 6.464-1.14zm4.019 1.194l-1.847.325-.325-1.847 1.846-.325.326 1.847zm-21.91-21.676c.413.069.806.23 1.15.469a2.8 2.8 0 011.158 1.816l5.387 30.549a5.675 5.675 0 00-.938.081c-.309.06-.613.144-.907.254l-5.85-33.17zm8.384 42.15a3.75 3.75 0 01-1.302-7.386 3.75 3.75 0 111.298 7.386h.004zm25.363-7.328l-20.394 3.597a5.665 5.665 0 00-.081-.938 5.599 5.599 0 00-.253-.907l23.014-4.058a2.82 2.82 0 01-2.286 2.306z" fill="var(--color-2)"/><path d="M37.363 18.503a.937.937 0 00-.326-1.845l-1.847.326a.937.937 0 10.326 1.846l1.847-.327z" fill="var(--color-2)"/></svg>