<svg width="60" height="60" viewBox="0 0 60 60" fill="none" xmlns="http://www.w3.org/2000/svg"><path d="M10.313 43.125A4.688 4.688 0 0015 47.813h38.438a3.75 3.75 0 003.75-3.75v-1.876H10.312v.938z" fill="var(--color-1)"/><path d="M39.375 14.063v9.374H33.75v-9.375H19.687v28.126h33.75V14.061H39.376zm10.313 24.374h-9.376v-3.75h9.376v3.75z" fill="var(--color-1)"/><path d="M57.188 41.25h-2.813V14.062a.938.938 0 00-.938-.937h-33.75a.938.938 0 00-.937.938V41.25H15V6.562a4.693 4.693 0 00-4.688-4.687h-7.5a.937.937 0 00-.937.938v3.75a.937.937 0 00.938.937h5.624a.937.937 0 01.938.938v34.687A5.63 5.63 0 0015 48.75h2.381a5.624 5.624 0 004.181 9.388 5.626 5.626 0 004.182-9.388h16.012a5.624 5.624 0 004.181 9.388 5.626 5.626 0 004.182-9.388h3.319a4.693 4.693 0 004.687-4.688v-1.874a.938.938 0 00-.938-.938zM38.438 15v7.5h-3.75V15h3.75zm-17.813 0h12.188v8.438a.938.938 0 00.937.937h5.625a.938.938 0 00.938-.938V15H52.5v26.25H20.625V15zM8.437 5.625H3.75V3.75h6.563a2.812 2.812 0 012.812 2.813V41.25H11.25V8.437a2.812 2.812 0 00-2.813-2.812zM25.314 52.5a3.75 3.75 0 11-7.5 0 3.75 3.75 0 017.5 0zm24.375 0a3.75 3.75 0 11-7.5 0 3.75 3.75 0 017.5 0zm6.562-8.438a2.812 2.812 0 01-2.813 2.813H15a3.75 3.75 0 01-3.75-3.75h45v.938z" fill="var(--color-2)"/><path d="M29.063 37.5h-5.625a.938.938 0 000 1.875h5.625a.938.938 0 000-1.875zM29.063 34.688h-5.625a.938.938 0 000 1.874h5.625a.938.938 0 000-1.874zM32.813 34.688h-.938a.938.938 0 000 1.874h.938a.938.938 0 000-1.874zM29.063 31.875h-5.625a.938.938 0 000 1.875h5.625a.938.938 0 000-1.875zM32.813 31.875h-.938a.938.938 0 000 1.875h.938a.938.938 0 000-1.875zM32.813 37.5h-.938a.938.938 0 000 1.875h.938a.938.938 0 000-1.875zM49.688 33.75h-9.376a.938.938 0 00-.937.938v3.75a.938.938 0 00.938.937h9.374a.938.938 0 00.938-.938v-3.75a.938.938 0 00-.938-.937zm-.938 3.75h-7.5v-1.875h7.5V37.5zM21.563 54.375a1.875 1.875 0 100-3.75 1.875 1.875 0 000 3.75zM45.938 54.375a1.875 1.875 0 100-3.75 1.875 1.875 0 000 3.75z" fill="var(--color-2)"/></svg>