<svg width="80" height="80" viewBox="0 0 80 80" fill="none" xmlns="http://www.w3.org/2000/svg">
    <path d="M3.75 16.25v7.5h72.5v-7.5L40 3.75 3.75 16.25zm40-1.25a3.75 3.75 0 11-7.5 0 3.75 3.75 0 017.5 0zM71.25 31.25v45h5v-52.5h-5v7.5zM3.75 23.75v52.5h5v-52.5h-5zM50 65l-2.5 1.25v-10H40v20h20v-20h-7.5v10L50 65zM32.5 56.25v10L30 65l-2.5 1.25v-10H20v20h20v-20h-7.5zM42.5 36.25v10L40 45l-2.5 1.25v-10H30v20h20v-20h-7.5zM8.75 23.75h62.5v7.5H8.75v-7.5z" fill="var(--color-1)"/>
    <path d="M76.657 15.069l-36.25-12.5a1.231 1.231 0 00-.814 0l-36.25 12.5A1.25 1.25 0 002.5 16.25v60a1.25 1.25 0 001.25 1.25h5A1.25 1.25 0 0010 76.25V32.5h60v43.75a1.25 1.25 0 001.25 1.25h5a1.25 1.25 0 001.25-1.25v-60a1.25 1.25 0 00-.843-1.181zM5 17.14L40 5.073 75 17.14V22.5H5v-5.359zM7.5 75H5V25h2.5v50zM10 30v-5h60v5H10zm65 45h-2.5V25H75v50z" fill="var(--color-2)"/><path d="M40 20a5 5 0 100-10 5 5 0 000 10zm0-7.5a2.5 2.5 0 110 5 2.5 2.5 0 010-5zM66.25 75h-5V56.25A1.25 1.25 0 0060 55h-8.75V36.25A1.25 1.25 0 0050 35H30a1.25 1.25 0 00-1.25 1.25V55H20a1.25 1.25 0 00-1.25 1.25V75h-5a1.25 1.25 0 000 2.5h52.5a1.25 1.25 0 000-2.5zm-17.5-17.5h2.5v6.728l-.691-.347a1.25 1.25 0 00-1.118 0l-.691.347V57.5zm-7.5-20v6.727l-.691-.346a1.25 1.25 0 00-1.118 0l-.691.346V37.5h2.5zm-10 0h5v8.75a1.25 1.25 0 001.809 1.125L40 46.398l1.941.97a1.25 1.25 0 001.809-1.118V37.5h5V55h-17.5V37.5zM30 57.5h1.25v6.728l-.691-.347a1.25 1.25 0 00-1.118 0l-.691.347V57.5H30zm-8.75 0h5v8.75a1.25 1.25 0 001.809 1.125L30 66.397l1.941.972a1.251 1.251 0 001.809-1.119V57.5h5V75h-17.5V57.5zm20 0h5v8.75a1.25 1.25 0 001.809 1.125L50 66.397l1.941.972a1.25 1.25 0 001.809-1.119V57.5h5V75h-17.5V57.5z" fill="var(--color-2)"/></svg>